<svg width="552" height="222" viewBox="0 0 552 222" fill="none" xmlns="http://www.w3.org/2000/svg">
<path d="M170.791 187.478C169.568 186.082 168.83 184.325 168.688 182.473L171.683 181.224C171.824 183.076 172.56 184.832 173.78 186.23L170.791 187.478Z" fill="url(#paint0_linear_856_569)"/>
<path d="M148.872 218.689C147.334 218.323 145.957 217.465 144.948 216.246L146.392 213.911C147.402 215.132 148.782 215.989 150.322 216.354L148.872 218.689Z" fill="url(#paint1_linear_856_569)"/>
<path d="M111.05 213.599C108.846 214.942 106.266 215.531 103.699 215.28L102.705 210.91C105.272 211.162 107.851 210.572 110.055 209.23L111.05 213.599Z" fill="url(#paint2_linear_856_569)"/>
<path d="M93.7975 197.316C90.8797 196.734 88.229 195.22 86.2437 193L87.5256 190.51C89.508 192.73 92.157 194.244 95.0733 194.825L93.7975 197.316Z" fill="url(#paint3_linear_856_569)"/>
<path d="M72.8913 195.815C71.4881 197.622 69.5373 198.924 67.3323 199.525L65.1338 196.223C67.3378 195.621 69.2867 194.317 70.6868 192.508L72.8913 195.815Z" fill="url(#paint4_linear_856_569)"/>
<path d="M22.4768 162.174C20.3322 164.533 12.1375 166.976 12.1375 166.976L10.5381 164.167C10.5381 164.167 18.7328 161.7 20.8774 159.365L22.4768 162.174Z" fill="url(#paint5_linear_856_569)"/>
<path d="M0.138839 121.24C-2.607 121.687 -5.42337 121.23 -7.88818 119.938L-7.11545 115.136C-4.65433 116.44 -1.83751 116.907 0.911575 116.469L0.138839 121.24Z" fill="url(#paint6_linear_856_569)"/>
<path d="M77.8213 214.902C73.3106 214.956 57.8735 212.243 57.8735 212.243L59.1735 210.244C59.1735 210.244 74.6105 212.951 79.1212 212.903L77.8213 214.902Z" fill="url(#paint7_linear_856_569)"/>
<path d="M58.7361 142.325C53.6084 141.323 48.0015 136.822 48.0015 136.822L49.1995 134.493C49.1995 134.493 54.8065 138.994 59.9342 139.997L58.7361 142.325Z" fill="url(#paint8_linear_856_569)"/>
<path d="M101.549 138.046C99.8305 138.077 98.1489 137.548 96.7563 136.54L97.6489 133.689C99.0399 134.701 100.722 135.232 102.441 135.201L101.549 138.046Z" fill="url(#paint9_linear_856_569)"/>
<path d="M141.085 181.11C140.289 179.701 139.974 178.07 140.186 176.465L142.936 175.931C142.723 177.536 143.039 179.167 143.834 180.576L141.085 181.11Z" fill="url(#paint10_linear_856_569)"/>
<path d="M151.748 152.733C148.827 151.877 146.263 150.096 144.439 147.655L147.435 143.31C149.256 145.752 151.821 147.535 154.743 148.387L151.748 152.733Z" fill="url(#paint11_linear_856_569)"/>
<path d="M171.288 119.434C169.105 117.513 167.602 114.936 167.005 112.087L171.36 109.543C171.954 112.391 173.455 114.969 175.637 116.889L171.288 119.434Z" fill="url(#paint12_linear_856_569)"/>
<path d="M220.33 147.505C218.776 147.836 217.157 147.651 215.718 146.977L216.035 144.234C217.475 144.908 219.094 145.093 220.648 144.762L220.33 147.505Z" fill="url(#paint13_linear_856_569)"/>
<path d="M86.8848 172.149C85.5848 174.744 83.4839 176.849 80.8945 178.151L77.3003 174.55C79.8944 173.24 81.9958 171.124 83.2906 168.518L86.8848 172.149Z" fill="url(#paint14_linear_856_569)"/>
<path d="M130.985 134.505C129.219 135.961 127.028 136.803 124.743 136.906L123.33 133.196C125.613 133.095 127.802 132.252 129.566 130.796L130.985 134.505Z" fill="url(#paint15_linear_856_569)"/>
<path d="M166.573 145.651C165.153 143.515 164.466 140.974 164.615 138.412L168.898 137.254C168.759 139.803 169.446 142.329 170.856 144.456L166.573 145.651Z" fill="url(#paint16_linear_856_569)"/>
<path d="M235.618 118.101C234.349 119.981 232.505 121.399 230.364 122.141L227.968 119.014C230.109 118.275 231.953 116.86 233.222 114.98L235.618 118.101Z" fill="url(#paint17_linear_856_569)"/>
<path d="M280.659 76.2614C278.384 77.6887 275.707 78.3354 273.033 78.104L271.937 73.5725C274.611 73.8004 277.286 73.1539 279.563 71.7299L280.659 76.2614Z" fill="url(#paint18_linear_856_569)"/>
<path d="M66.5832 166.976C64.2469 165.811 62.3539 163.915 61.1919 161.574L64.3847 158.381C65.5468 160.722 67.4397 162.618 69.776 163.783L66.5832 166.976Z" fill="url(#paint19_linear_856_569)"/>
<path d="M104.43 163.687C101.507 163.577 98.6982 162.524 96.4209 160.686L98.218 155.92C100.489 157.774 103.3 158.84 106.227 158.957L104.43 163.687Z" fill="url(#paint20_linear_856_569)"/>
<path d="M107.611 151.502C105.603 149.312 104.358 146.528 104.064 143.568L108.767 141.455C109.058 144.419 110.303 147.208 112.313 149.402L107.611 151.502Z" fill="url(#paint21_linear_856_569)"/>
<path d="M184.071 125.838C182.565 128.669 180.184 130.935 177.284 132.296L173.462 128.257C176.363 126.9 178.745 124.635 180.249 121.805L184.071 125.838Z" fill="url(#paint22_linear_856_569)"/>
<path d="M197.651 55.0804C196.568 56.6175 195.017 57.7612 193.23 58.3394L191.301 55.7106C193.088 55.1323 194.639 53.9886 195.722 52.4515L197.651 55.0804Z" fill="url(#paint23_linear_856_569)"/>
<path d="M171.348 26.955C170.731 29.2494 169.385 31.2803 167.514 32.7409L164.094 30.4602C165.962 28.9974 167.307 26.9674 167.928 24.6742L171.348 26.955Z" fill="url(#paint24_linear_856_569)"/>
<path d="M101.285 217.188C99.4959 218.07 97.469 218.344 95.5106 217.969L95.0493 214.536C97.0057 214.91 99.0308 214.637 100.818 213.755L101.285 217.188Z" fill="url(#paint25_linear_856_569)"/>
<path d="M117.004 173.458C115.817 174.758 114.24 175.637 112.511 175.961L111.025 173.29C112.754 172.966 114.331 172.088 115.518 170.787L117.004 173.458Z" fill="url(#paint26_linear_856_569)"/>
<path d="M53.201 173.938C51.9606 176.602 49.8898 178.791 47.3005 180.174L43.6045 176.663C46.1961 175.281 48.269 173.092 49.5109 170.427L53.201 173.938Z" fill="url(#paint27_linear_856_569)"/>
<path d="M48.403 210.742C47.9039 212.969 46.6949 214.973 44.9586 216.45L41.5801 214.403C43.3143 212.924 44.523 210.922 45.0245 208.696L48.403 210.742Z" fill="url(#paint28_linear_856_569)"/>
<path d="M27.3649 209.17C24.6236 208.787 22.0802 207.523 20.1167 205.569L22.2492 201.259C24.2127 203.214 26.7561 204.477 29.4975 204.86L27.3649 209.17Z" fill="url(#paint29_linear_856_569)"/>
<path d="M37.4528 108.246C36.0023 106.192 35.258 103.721 35.3322 101.206L39.5254 99.9453C39.4512 102.46 40.1955 104.932 41.646 106.986L37.4528 108.246Z" fill="url(#paint30_linear_856_569)"/>
<path d="M121.676 163.975C119.179 164.595 116.549 164.384 114.182 163.374L114.548 158.921C116.915 159.93 119.545 160.14 122.041 159.521L121.676 163.975Z" fill="url(#paint31_linear_856_569)"/>
<path d="M114.081 120.376C109.037 121.577 107.977 119.32 107.977 119.32L108.18 117.435C108.18 117.435 109.241 119.71 114.284 118.491L114.081 120.376Z" fill="url(#paint32_linear_856_569)"/>
<path d="M122.742 103.354C121.483 101.481 120.865 99.2482 120.981 96.9923L124.749 95.948C124.633 98.2038 125.251 100.437 126.51 102.31L122.742 103.354Z" fill="url(#paint33_linear_856_569)"/>
<path d="M141.756 79.5325C137.742 77.1317 134.094 70.8836 134.094 70.8836L135.891 70.3314C135.891 70.3314 139.545 76.5735 143.559 78.9803L141.756 79.5325Z" fill="url(#paint34_linear_856_569)"/>
<path d="M71.226 153.909C69.5549 151.522 68.7034 148.655 68.7999 145.741L73.6401 144.3C73.5362 147.211 74.3769 150.077 76.0362 152.469L71.226 153.909Z" fill="url(#paint35_linear_856_569)"/>
<path d="M123.114 140.045C121.176 139.246 119.55 137.837 118.483 136.029L120.88 133.28C121.951 135.084 123.578 136.491 125.516 137.29L123.114 140.045Z" fill="url(#paint36_linear_856_569)"/>
<path d="M150.801 186.134C149.026 188.753 146.451 190.725 143.463 191.752L140.132 187.388C143.121 186.361 145.696 184.39 147.47 181.771L150.801 186.134Z" fill="url(#paint37_linear_856_569)"/>
<path d="M210.572 207.789C208.627 208.89 206.377 209.326 204.163 209.032L203.426 205.22C205.642 205.515 207.894 205.079 209.841 203.978L210.572 207.789Z" fill="url(#paint38_linear_856_569)"/>
<path d="M226.177 63.6752C223.89 64.5084 221.396 64.5778 219.067 63.8733L218.947 59.6419C221.278 60.3499 223.775 60.2804 226.063 59.4438L226.177 63.6752Z" fill="url(#paint39_linear_856_569)"/>
<path d="M163.59 58.3394C162.016 56.2097 161.175 53.6251 161.194 50.975L165.555 49.5705C165.527 52.2155 166.357 54.798 167.921 56.929L163.59 58.3394Z" fill="url(#paint40_linear_856_569)"/>
<path d="M137.628 43.8866C136.26 44.7609 134.646 45.1673 133.028 45.045L132.339 42.3081C133.959 42.4304 135.575 42.024 136.945 41.1497L137.628 43.8866Z" fill="url(#paint41_linear_856_569)"/>
<path d="M81.781 98.901C80.7524 100.166 79.3421 101.064 77.7615 101.458L76.252 99.057C77.8305 98.662 79.2387 97.7649 80.2654 96.5002L81.781 98.901Z" fill="url(#paint42_linear_856_569)"/>
<path d="M268.031 37.6025C267.004 38.8672 265.596 39.7643 264.018 40.1594L262.502 37.7586C264.083 37.3643 265.493 36.4672 266.521 35.2017L268.031 37.6025Z" fill="url(#paint43_linear_856_569)"/>
<path d="M278.376 144.33C277.185 145.945 275.504 147.128 273.584 147.703L271.589 144.864C273.51 144.295 275.193 143.113 276.382 141.497L278.376 144.33Z" fill="url(#paint44_linear_856_569)"/>
<path d="M250.893 175.3C247.586 173.02 245.088 164.431 245.088 164.431L246.706 162.882C246.706 162.882 249.204 171.471 252.51 173.752L250.893 175.3Z" fill="url(#paint45_linear_856_569)"/>
<path d="M231.82 101.83C229.748 102.816 227.412 103.1 225.165 102.64L224.686 98.6849C226.933 99.1449 229.269 98.8605 231.341 97.8746L231.82 101.83Z" fill="url(#paint46_linear_856_569)"/>
<path d="M163.848 111.529C162.207 115.665 157.019 121.132 157.019 121.132L155.276 119.26C155.276 119.26 160.469 113.768 162.105 109.657L163.848 111.529Z" fill="url(#paint47_linear_856_569)"/>
<path d="M224.59 10.5215C221.103 12.5142 214.34 13.4565 214.34 13.4565L214.167 11.1517C214.167 11.1517 220.93 10.2094 224.416 8.21072L224.59 10.5215Z" fill="url(#paint48_linear_856_569)"/>
<path d="M166.663 82.1794C164.747 83.0095 162.613 83.1928 160.583 82.7016L160.271 79.1004C162.301 79.5912 164.435 79.4079 166.352 78.5782L166.663 82.1794Z" fill="url(#paint49_linear_856_569)"/>
<path d="M129.553 112.844C128.991 114.883 127.785 116.686 126.115 117.981L123.072 115.935C124.743 114.641 125.95 112.838 126.51 110.797L129.553 112.844Z" fill="url(#paint50_linear_856_569)"/>
<path d="M185.826 218.347C184.185 222.482 178.998 227.95 178.998 227.95L177.254 226.077C177.254 226.077 182.448 220.586 184.083 216.474L185.826 218.347Z" fill="url(#paint51_linear_856_569)"/>
<path d="M104.544 54.7803C102.861 55.9026 97.3557 56.7129 97.3557 56.7129L97.1221 55.8906C97.1221 55.8906 102.513 54.6902 104.209 53.5859L104.544 54.7803Z" fill="url(#paint52_linear_856_569)"/>
<path d="M101.297 94.2914C100.024 92.9961 99.2039 91.3217 98.9609 89.5198L100.369 88.8236C100.607 90.6369 101.429 92.3227 102.711 93.6252L101.297 94.2914Z" fill="url(#paint53_linear_856_569)"/>
<path d="M62.486 100.119C61.2511 101.396 59.6373 102.238 57.8854 102.52L56.4478 99.7832C58.2033 99.4929 59.8176 98.64 61.0483 97.3524L62.486 100.119Z" fill="url(#paint54_linear_856_569)"/>
<path d="M91.4292 100.935L90.0933 103.775L94.3034 105.763L95.6393 102.924L91.4292 100.935Z" fill="url(#paint55_linear_856_569)"/>
<path d="M94.4681 105.437C92.8919 105.245 91.4204 104.546 90.2749 103.444L91.473 100.942C92.6197 102.041 94.0906 102.74 95.6662 102.934L94.4681 105.437Z" fill="url(#paint56_linear_856_569)"/>
<path d="M144.671 65.0838L143.194 68.8228L148.736 71.0212L150.213 67.2822L144.671 65.0838Z" fill="url(#paint57_linear_856_569)"/>
<path d="M148.932 70.6075C146.896 70.4964 144.952 69.7255 143.391 68.4108L144.697 65.1157C146.256 66.4298 148.198 67.2027 150.232 67.3185L148.932 70.6075Z" fill="url(#paint58_linear_856_569)"/>
<path d="M4.06877 143.952C1.83732 144.991 -0.670079 145.277 -3.07766 144.768L-3.54492 140.519C-1.14056 141.037 1.36672 140.761 3.60151 139.733L4.06877 143.952Z" fill="url(#paint59_linear_856_569)"/>
<path d="M1.46304 97.4905C0.120443 100.23 -2.07439 102.459 -4.79084 103.841L-8.55273 100.125C-5.83407 98.7355 -3.63939 96.4986 -2.29886 93.7513L1.46304 97.4905Z" fill="url(#paint60_linear_856_569)"/>
<path d="M260.627 201.391C259.597 199.261 259.286 196.853 259.74 194.531L263.808 194.003C263.353 196.325 263.664 198.733 264.694 200.863L260.627 201.391Z" fill="url(#paint61_linear_856_569)"/>
<path d="M81.2956 64.4135C79.2744 63.1399 77.7193 61.2447 76.8628 59.0117L80.0616 56.3768C80.9174 58.6121 82.4753 60.508 84.5004 61.7786L81.2956 64.4135Z" fill="url(#paint62_linear_856_569)"/>
<path d="M109.935 42.8363C109.475 40.5131 109.782 38.103 110.81 35.97L114.877 36.4921C113.849 38.625 113.54 41.0345 113.997 43.3584L109.935 42.8363Z" fill="url(#paint63_linear_856_569)"/>
<path d="M117.465 82.1734C115.928 80.6265 114.933 78.6213 114.631 76.4595L118.016 74.7729C118.318 76.9348 119.312 78.9399 120.849 80.4868L117.465 82.1734Z" fill="url(#paint64_linear_856_569)"/>
<path d="M44.9406 64.4855C42.8135 64.4695 40.7491 63.7618 39.0581 62.4688L40.2562 58.9756C41.9486 60.2653 44.0124 60.9707 46.1386 60.9863L44.9406 64.4855Z" fill="url(#paint65_linear_856_569)"/>
<path d="M195.501 31.7986C194.434 30.8743 193.296 30.028 192.14 29.2117C190.984 28.3955 189.81 27.6092 188.582 26.913C188.732 26.997 186.899 25.9947 186.905 26.2468C186.952 30.3942 183.31 33.7433 180.022 35.7299C178.167 36.8422 176.079 37.5041 173.924 37.6626C172.997 37.7129 172.067 37.6484 171.156 37.4705C170.73 37.3904 170.308 37.2882 169.892 37.1644L169.449 37.0084L168.916 36.6662C168.16 36.1251 167.334 35.6909 166.46 35.3758C165.717 35.1717 166.735 36.1441 166.687 36.102C167.559 36.9242 168.483 37.6881 169.455 38.3888C174.499 42.2301 179.926 45.8433 186.449 44.0967C191.014 42.8963 196.747 38.3288 196.687 33.1611C196.681 32.6869 195.752 32.0207 195.501 31.7986Z" fill="url(#paint66_linear_856_569)"/>
<path d="M7.37517 184.982C6.10618 184.358 4.80663 183.799 3.48148 183.307C2.16531 182.791 0.823765 182.342 -0.537989 181.963C-0.37026 182.011 -2.39498 181.489 -2.33508 181.735C-1.26282 185.744 -3.97045 189.891 -6.6541 192.628C-8.17988 194.163 -10.0394 195.324 -12.0873 196.019C-12.9734 196.299 -13.8911 196.467 -14.8189 196.517C-15.2518 196.542 -15.6858 196.542 -16.1188 196.517L-16.586 196.481L-17.1851 196.283C-18.0502 195.947 -18.9571 195.731 -19.8807 195.641C-20.6534 195.641 -19.4254 196.319 -19.4793 196.283C-18.4347 196.868 -17.352 197.381 -16.2386 197.82C-10.398 200.287 -4.25799 202.441 1.64245 199.128C5.76378 196.806 10.1906 190.984 8.83081 185.99C8.74096 185.522 7.67469 185.108 7.37517 184.982Z" fill="url(#paint67_linear_856_569)"/>
<path d="M150.1 127.068C149.701 130.77 149.302 134.475 148.902 138.184C148.944 137.77 155.492 137.998 155.57 137.488C155.969 133.787 156.368 130.081 156.768 126.372C156.726 126.786 150.178 126.558 150.1 127.068Z" fill="url(#paint68_linear_856_569)"/>
<path d="M110.936 65.0437L120.963 70.7516C120.592 70.5415 123.527 64.3895 123.066 64.1494L113.038 58.4355C113.41 58.6515 110.474 64.7976 110.936 65.0377V65.0437Z" fill="url(#paint69_linear_856_569)"/>
<path d="M208.608 191.62C208.871 191.224 204.93 186.332 204.636 185.924C204.342 185.516 200.377 180.564 200.557 180.306C197.167 185.444 192.341 189.466 186.683 191.872C187.486 191.524 193.74 203.612 194.734 203.186C200.394 200.782 205.22 196.759 208.608 191.62Z" fill="url(#paint70_linear_856_569)"/>
<path d="M11.1613 82.7136C11.4369 82.8936 14.7555 80.1027 15.0251 79.8986C15.2946 79.6946 18.6492 76.8976 18.8289 76.9997C15.2487 74.7353 12.4165 71.461 10.6881 67.5885C10.9397 68.1407 2.71501 72.6242 3.02051 73.3024C4.7489 77.1749 7.58115 80.4491 11.1613 82.7136Z" fill="url(#paint71_linear_856_569)"/>
<path d="M196.705 149.63C198.873 154.117 202.096 158.01 206.097 160.974C206.343 161.154 207.978 161.022 208.128 161.022C209.765 161.022 211.401 161.022 213.034 161.022C214.67 161.022 214.053 161.934 215.688 161.916C216.362 161.839 217.042 161.822 217.719 161.868C213.717 158.907 210.494 155.016 208.326 150.53C208.068 149.996 204.222 149.54 203.641 149.54C203.06 149.54 196.89 149.99 196.705 149.606V149.63Z" fill="url(#paint72_linear_856_569)"/>
<path d="M68.2428 79.0584C67.9253 78.7883 66.0084 77.5639 65.9605 77.1377C66.3618 80.7389 63.4745 83.0077 60.7849 84.7843C58.5625 86.2427 55.9028 87.101 53.3809 86.3748L56.5557 89.7119C59.515 91.3205 62.6059 90.3121 65.3076 88.6676C68.0092 87.023 70.8785 84.5262 70.4832 81.027C70.4293 80.5468 68.6022 79.3465 68.2428 79.0584Z" fill="url(#paint73_linear_856_569)"/>
<path d="M30.1505 190.84C30.559 191.008 30.9032 191.302 31.133 191.68L30.6298 192.28C30.4032 191.902 30.0607 191.607 29.6533 191.44L30.1505 190.84Z" fill="url(#paint74_linear_856_569)"/>
<path d="M31.4622 181.861C31.8289 181.772 32.2143 181.808 32.5585 181.963L32.4985 182.611C32.1534 182.46 31.7692 182.425 31.4023 182.509L31.4622 181.861Z" fill="url(#paint75_linear_856_569)"/>
<path d="M40.0825 178.902C40.4069 178.379 40.8927 177.976 41.4662 177.755L42.1432 178.584C41.5707 178.803 41.0851 179.204 40.7594 179.724L40.0825 178.902Z" fill="url(#paint76_linear_856_569)"/>
<path d="M46.4678 180.138C47.1502 179.949 47.8754 179.987 48.5344 180.246L48.4685 181.447C47.8098 181.187 47.0851 181.147 46.4019 181.332L46.4678 180.138Z" fill="url(#paint77_linear_856_569)"/>
<path d="M50.0923 178.608C50.1998 178.072 50.4772 177.586 50.883 177.221L51.6977 177.689C51.2947 178.055 51.0196 178.541 50.913 179.076L50.0923 178.608Z" fill="url(#paint78_linear_856_569)"/>
<path d="M61.7072 175.709C62.1465 175.659 62.5901 175.754 62.9711 175.979L62.8153 176.735C62.4323 176.51 61.9867 176.415 61.5454 176.465L61.7072 175.709Z" fill="url(#paint79_linear_856_569)"/>
<path d="M73.5083 186.704C74.0445 186.309 74.6939 186.099 75.3594 186.104L75.7008 187.202C75.0363 187.192 74.3873 187.403 73.8558 187.803L73.5083 186.704Z" fill="url(#paint80_linear_856_569)"/>
<path d="M81.3018 194.177C81.7608 193.818 82.3248 193.619 82.9072 193.613L83.2367 194.567C82.655 194.577 82.092 194.775 81.6313 195.131L81.3018 194.177Z" fill="url(#paint81_linear_856_569)"/>
<path d="M219.81 167.167L218.202 168.286L218.954 169.371L220.562 168.251L219.81 167.167Z" fill="url(#paint82_linear_856_569)"/>
<path d="M218.288 168.464C218.688 167.927 219.251 167.535 219.893 167.348L220.558 168.302C219.917 168.491 219.353 168.883 218.953 169.418L218.288 168.464Z" fill="url(#paint83_linear_856_569)"/>
<path d="M232.257 178.878C232.807 178.398 233.5 178.113 234.228 178.067L234.707 179.238C233.98 179.287 233.288 179.571 232.736 180.048L232.257 178.878Z" fill="url(#paint84_linear_856_569)"/>
<path d="M226.021 187.851C226.272 187.526 226.621 187.292 227.016 187.184L227.411 187.785C227.017 187.894 226.668 188.128 226.417 188.451L226.021 187.851Z" fill="url(#paint85_linear_856_569)"/>
<path d="M212.166 188.787C212.545 188.847 212.895 189.03 213.16 189.309L212.848 189.909C212.581 189.633 212.233 189.45 211.854 189.387L212.166 188.787Z" fill="url(#paint86_linear_856_569)"/>
<path d="M215.832 194.999C216.426 194.584 217.138 194.374 217.862 194.399L218.216 195.599C217.494 195.574 216.783 195.785 216.191 196.199L215.832 194.999Z" fill="url(#paint87_linear_856_569)"/>
<path d="M219.097 203.588C219.776 203.465 220.476 203.569 221.091 203.882L220.918 205.082C220.301 204.768 219.598 204.665 218.917 204.788L219.097 203.588Z" fill="url(#paint88_linear_856_569)"/>
<path d="M206.589 208.54C206.76 208.202 207.035 207.928 207.374 207.759L207.835 208.227C207.496 208.396 207.221 208.67 207.05 209.008L206.589 208.54Z" fill="url(#paint89_linear_856_569)"/>
<path d="M115.039 218.347C115.039 217.652 115.264 216.976 115.68 216.42L116.818 216.798C116.402 217.354 116.179 218.03 116.183 218.725L115.039 218.347Z" fill="url(#paint90_linear_856_569)"/>
<path d="M157.157 75.9553C157.78 75.9631 158.383 76.1738 158.876 76.5555L158.535 77.5759C158.042 77.1941 157.438 76.9834 156.815 76.9757L157.157 75.9553Z" fill="url(#paint91_linear_856_569)"/>
<path d="M149.471 80.7029C150.105 80.4121 150.816 80.3383 151.496 80.4928L151.622 81.6932C150.941 81.5428 150.23 81.6187 149.597 81.9093L149.471 80.7029Z" fill="url(#paint92_linear_856_569)"/>
<path d="M150.07 83.6319C150.73 83.8874 151.291 84.3481 151.67 84.9463L150.891 85.8946C150.514 85.2954 149.953 84.8359 149.292 84.5862L150.07 83.6319Z" fill="url(#paint93_linear_856_569)"/>
<path d="M136.538 97.2624C136.555 96.5004 136.82 95.765 137.293 95.1677L138.533 95.6179C138.063 96.2166 137.798 96.9512 137.778 97.7126L136.538 97.2624Z" fill="url(#paint94_linear_856_569)"/>
<path d="M141.181 113.774C141.242 113.318 141.453 112.896 141.78 112.574L142.469 112.928C142.149 113.241 141.939 113.649 141.87 114.092L141.181 113.774Z" fill="url(#paint95_linear_856_569)"/>
<path d="M149.765 116.943C149.655 116.389 149.726 115.814 149.969 115.304L150.939 115.424C150.696 115.934 150.625 116.509 150.735 117.063L149.765 116.943Z" fill="url(#paint96_linear_856_569)"/>
<path d="M90.3529 77.2517C91.0522 77.0553 91.7962 77.0911 92.4734 77.3538L92.4135 78.6202C91.737 78.354 90.9919 78.3182 90.293 78.5182L90.3529 77.2517Z" fill="url(#paint97_linear_856_569)"/>
<path d="M76.2157 83.5058C76.9173 83.5798 77.5756 83.8812 78.0907 84.3641L77.5815 85.4805C77.0664 84.9975 76.4081 84.6962 75.7065 84.6222L76.2157 83.5058Z" fill="url(#paint98_linear_856_569)"/>
<path d="M74.5205 92.5509C74.8069 92.1729 75.2087 91.8989 75.6647 91.7706L76.1259 92.4488C75.6712 92.5799 75.2702 92.8533 74.9818 93.2291L74.5205 92.5509Z" fill="url(#paint99_linear_856_569)"/>
<path d="M75.8267 103.511C75.9442 103.107 76.1877 102.751 76.5215 102.496L77.1205 102.91C76.7865 103.161 76.5443 103.516 76.4316 103.919L75.8267 103.511Z" fill="url(#paint100_linear_856_569)"/>
<path d="M156.875 215.286C156.86 214.586 157.07 213.9 157.474 213.329L158.636 213.677C158.229 214.247 158.019 214.934 158.037 215.634L156.875 215.286Z" fill="url(#paint101_linear_856_569)"/>
<path d="M153.982 206.943C153.85 206.415 153.895 205.859 154.108 205.358L155.042 205.43C154.83 205.931 154.785 206.487 154.916 207.015L153.982 206.943Z" fill="url(#paint102_linear_856_569)"/>
<path d="M158.625 205.028C159.248 204.819 159.923 204.819 160.547 205.028V206.175C159.923 205.966 159.248 205.966 158.625 206.175V205.028Z" fill="url(#paint103_linear_856_569)"/>
<path d="M164.094 195.449C164.179 195.086 164.378 194.76 164.663 194.519L165.214 194.861C164.917 195.096 164.706 195.423 164.615 195.791L164.094 195.449Z" fill="url(#paint104_linear_856_569)"/>
<path d="M177.686 194.621C178.029 194.807 178.302 195.1 178.464 195.455L177.967 195.917C177.805 195.562 177.532 195.269 177.188 195.083L177.686 194.621Z" fill="url(#paint105_linear_856_569)"/>
<path d="M136.46 178.98C136.986 179.26 137.407 179.705 137.658 180.246L136.909 180.96C136.658 180.419 136.238 179.974 135.711 179.694L136.46 178.98Z" fill="url(#paint106_linear_856_569)"/>
<path d="M150.43 183.883C150.428 183.317 150.609 182.766 150.945 182.311L151.873 182.611C151.538 183.066 151.359 183.618 151.364 184.183L150.43 183.883Z" fill="url(#paint107_linear_856_569)"/>
<path d="M125.51 159.995C125.976 159.598 126.558 159.362 127.169 159.323L127.564 160.313C126.954 160.348 126.371 160.582 125.905 160.98L125.51 159.995Z" fill="url(#paint108_linear_856_569)"/>
<path d="M131.189 168.824C131.738 168.352 132.426 168.072 133.148 168.026L133.621 169.19C132.901 169.236 132.215 169.516 131.668 169.989L131.189 168.824Z" fill="url(#paint109_linear_856_569)"/>
<path d="M131.704 172.978C132.17 173.242 132.538 173.65 132.752 174.142L132.063 174.742C131.849 174.249 131.481 173.839 131.015 173.572L131.704 172.978Z" fill="url(#paint110_linear_856_569)"/>
<path d="M129.446 180.48C130.095 180.522 130.713 180.775 131.207 181.2L130.781 182.251C130.279 181.816 129.647 181.56 128.984 181.525L129.446 180.48Z" fill="url(#paint111_linear_856_569)"/>
<path d="M99.7515 123.305C100.362 123.637 100.849 124.157 101.141 124.788L100.261 125.61C99.9719 124.979 99.4863 124.458 98.877 124.127L99.7515 123.305Z" fill="url(#paint112_linear_856_569)"/>
<path d="M90.1673 131.798C90.663 131.762 91.1569 131.889 91.575 132.158L91.3654 132.998C90.9454 132.728 90.4494 132.602 89.9517 132.638L90.1673 131.798Z" fill="url(#paint113_linear_856_569)"/>
<path d="M79.3848 124.962C79.4828 124.216 79.8215 123.522 80.3492 122.987L81.5473 123.557C81.0205 124.096 80.6822 124.791 80.5828 125.538L79.3848 124.962Z" fill="url(#paint114_linear_856_569)"/>
<path d="M64.3491 126.762C64.6468 126.32 65.0799 125.987 65.5831 125.814L66.1462 126.546C65.643 126.72 65.2098 127.052 64.9122 127.494L64.3491 126.762Z" fill="url(#paint115_linear_856_569)"/>
<path d="M59.9404 115.094C60.5614 114.656 61.3079 114.433 62.0669 114.458L62.4443 115.719C61.6849 115.697 60.939 115.923 60.3178 116.361L59.9404 115.094Z" fill="url(#paint116_linear_856_569)"/>
<path d="M51.6136 112.423C52.1384 112.367 52.6675 112.481 53.1232 112.748L52.9314 113.642C52.477 113.372 51.9463 113.26 51.4219 113.324L51.6136 112.423Z" fill="url(#paint117_linear_856_569)"/>
<path d="M101.045 208.648C101.446 208.225 101.971 207.943 102.543 207.843L103.016 208.732C102.445 208.831 101.922 209.113 101.525 209.536L101.045 208.648Z" fill="url(#paint118_linear_856_569)"/>
<path d="M114.931 203.096C115.491 203.382 115.943 203.844 116.219 204.41L115.44 205.172C115.165 204.609 114.715 204.15 114.158 203.864L114.931 203.096Z" fill="url(#paint119_linear_856_569)"/>
<path d="M121.994 203.396C122.193 203.064 122.493 202.805 122.85 202.658L123.288 203.168C122.93 203.315 122.63 203.574 122.431 203.906L121.994 203.396Z" fill="url(#paint120_linear_856_569)"/>
<path d="M128.02 185.726C128.109 185.345 128.319 185.004 128.619 184.754L129.218 185.102C128.918 185.352 128.708 185.693 128.619 186.074L128.02 185.726Z" fill="url(#paint121_linear_856_569)"/>
<path d="M8.57933 121.414C8.52051 120.798 8.66348 120.178 8.98667 119.65L10.035 119.89C9.71299 120.419 9.57012 121.038 9.62763 121.655L8.57933 121.414Z" fill="url(#paint122_linear_856_569)"/>
<path d="M11.8921 129.763C12.2136 129.383 12.6482 129.116 13.1321 129.001L13.5814 129.739C13.0961 129.851 12.6606 130.119 12.3414 130.501L11.8921 129.763Z" fill="url(#paint123_linear_856_569)"/>
<path d="M16.5224 119.248C16.4268 118.752 16.4919 118.239 16.7081 117.783L17.5707 117.897C17.3545 118.351 17.2914 118.863 17.391 119.356L16.5224 119.248Z" fill="url(#paint124_linear_856_569)"/>
<path d="M172.642 159.515C173.159 159.627 173.626 159.905 173.971 160.307L173.504 161.094C173.158 160.694 172.691 160.418 172.174 160.307L172.642 159.515Z" fill="url(#paint125_linear_856_569)"/>
<path d="M183.91 155.758C184.452 155.815 184.962 156.049 185.359 156.424L184.964 157.288C184.566 156.913 184.057 156.677 183.514 156.616L183.91 155.758Z" fill="url(#paint126_linear_856_569)"/>
<path d="M175.319 137.374C175.445 136.969 175.697 136.616 176.038 136.365L176.637 136.792C176.296 137.042 176.044 137.395 175.918 137.8L175.319 137.374Z" fill="url(#paint127_linear_856_569)"/>
<path d="M125.784 185.519L124.676 185.546L124.694 186.296L125.802 186.269L125.784 185.519Z" fill="url(#paint128_linear_856_569)"/>
<path d="M124.629 185.69C124.989 185.57 125.378 185.57 125.738 185.69V186.35C125.378 186.23 124.989 186.23 124.629 186.35V185.69Z" fill="url(#paint129_linear_856_569)"/>
<path d="M118.187 198.637L116.773 198.761L116.856 199.712L118.271 199.588L118.187 198.637Z" fill="url(#paint130_linear_856_569)"/>
<path d="M116.746 198.918C117.191 198.724 117.687 198.68 118.16 198.792L118.232 199.633C117.759 199.52 117.263 199.565 116.818 199.759L116.746 198.918Z" fill="url(#paint131_linear_856_569)"/>
<path d="M131.864 200.763L131.413 202.067L132.29 202.372L132.741 201.068L131.864 200.763Z" fill="url(#paint132_linear_856_569)"/>
<path d="M131.5 202.075C131.506 201.602 131.664 201.143 131.95 200.767L132.723 201.037C132.436 201.413 132.279 201.872 132.273 202.345L131.5 202.075Z" fill="url(#paint133_linear_856_569)"/>
<path d="M159.11 132.356C159.518 132.348 159.918 132.474 160.248 132.716L160.032 133.394C159.702 133.152 159.303 133.024 158.894 133.028L159.11 132.356Z" fill="url(#paint134_linear_856_569)"/>
<path d="M162.183 145.969C162.548 145.51 163.053 145.183 163.62 145.038L164.171 145.891C163.605 146.038 163.101 146.364 162.734 146.821L162.183 145.969Z" fill="url(#paint135_linear_856_569)"/>
<path d="M162.722 155.362C162.716 154.636 162.945 153.929 163.375 153.345L164.573 153.735C164.143 154.319 163.914 155.027 163.92 155.752L162.722 155.362Z" fill="url(#paint136_linear_856_569)"/>
<path d="M413.484 106.855C413.478 106.13 413.708 105.422 414.137 104.839L415.335 105.229C414.906 105.812 414.676 106.52 414.683 107.245L413.484 106.855Z" fill="url(#paint137_linear_856_569)"/>
<path d="M65.433 153.681C65.9391 153.859 66.3742 154.196 66.6731 154.642L66.074 155.38C65.7733 154.936 65.3388 154.599 64.834 154.42L65.433 153.681Z" fill="url(#paint138_linear_856_569)"/>
<path d="M316.196 105.175C316.702 105.352 317.137 105.689 317.436 106.135L316.837 106.873C316.536 106.429 316.102 106.093 315.597 105.913L316.196 105.175Z" fill="url(#paint139_linear_856_569)"/>
<path d="M46.6235 162.402C47.1854 162.313 47.761 162.407 48.2648 162.672L48.1031 163.645C47.6014 163.38 47.027 163.287 46.4678 163.38L46.6235 162.402Z" fill="url(#paint140_linear_856_569)"/>
<path d="M297.386 113.896C297.948 113.806 298.524 113.901 299.028 114.166L298.866 115.138C298.364 114.873 297.79 114.781 297.23 114.874L297.386 113.896Z" fill="url(#paint141_linear_856_569)"/>
<path d="M44.4073 172.978C44.8558 173.321 45.1798 173.801 45.3298 174.346L44.5212 174.892C44.3711 174.347 44.0471 173.867 43.5986 173.524L44.4073 172.978Z" fill="url(#paint142_linear_856_569)"/>
<path d="M295.17 124.471C295.618 124.814 295.943 125.295 296.093 125.84L295.284 126.386C295.134 125.841 294.81 125.36 294.361 125.017L295.17 124.471Z" fill="url(#paint143_linear_856_569)"/>
<path d="M122.21 193.096C122.696 193.264 123.116 193.584 123.408 194.009L122.868 194.729C122.577 194.304 122.157 193.984 121.67 193.817L122.21 193.096Z" fill="url(#paint144_linear_856_569)"/>
<path d="M372.972 144.59C373.459 144.757 373.879 145.077 374.17 145.502L373.631 146.222C373.34 145.797 372.92 145.477 372.433 145.31L372.972 144.59Z" fill="url(#paint145_linear_856_569)"/>
<path d="M134.747 190.221C135.14 190.053 135.578 190.017 135.993 190.119L136.053 190.858C135.638 190.755 135.2 190.791 134.807 190.96L134.747 190.221Z" fill="url(#paint146_linear_856_569)"/>
<path d="M385.51 141.715C385.903 141.546 386.34 141.511 386.756 141.613L386.816 142.351C386.4 142.249 385.963 142.285 385.57 142.453L385.51 141.715Z" fill="url(#paint147_linear_856_569)"/>
<path d="M143.894 199.735C144.348 199.509 144.863 199.437 145.362 199.531L145.481 200.407C144.984 200.309 144.468 200.379 144.014 200.605L143.894 199.735Z" fill="url(#paint148_linear_856_569)"/>
<path d="M394.657 151.228C395.111 151.002 395.626 150.931 396.124 151.024L396.244 151.9C395.747 151.803 395.231 151.873 394.777 152.098L394.657 151.228Z" fill="url(#paint149_linear_856_569)"/>
<path d="M86.8488 128.353C87.3908 128.169 87.978 128.169 88.5201 128.353V129.343C87.9754 129.163 87.3874 129.163 86.8428 129.343L86.8488 128.353Z" fill="url(#paint150_linear_856_569)"/>
<path d="M337.611 79.8463C338.154 79.6629 338.741 79.6629 339.283 79.8463V80.8366C338.738 80.6566 338.15 80.6566 337.605 80.8366L337.611 79.8463Z" fill="url(#paint151_linear_856_569)"/>
<path d="M92.7011 121.078C93.1795 121.256 93.5859 121.588 93.8573 122.021L93.3001 122.705C93.0245 122.276 92.6196 121.946 92.144 121.763L92.7011 121.078Z" fill="url(#paint152_linear_856_569)"/>
<path d="M343.464 72.5719C343.942 72.7499 344.349 73.0811 344.62 73.5142L344.063 74.1984C343.787 73.7691 343.382 73.4391 342.907 73.2561L343.464 72.5719Z" fill="url(#paint153_linear_856_569)"/>
<path d="M98.835 110.707C98.9842 110.222 99.2897 109.8 99.7036 109.507L100.404 110.023C99.9921 110.317 99.6871 110.739 99.5358 111.223L98.835 110.707Z" fill="url(#paint154_linear_856_569)"/>
<path d="M349.598 62.2004C349.747 61.7151 350.052 61.293 350.466 61L351.167 61.5162C350.755 61.8108 350.45 62.2323 350.299 62.7166L349.598 62.2004Z" fill="url(#paint155_linear_856_569)"/>
<path d="M102.992 111.817C102.899 111.227 103 110.622 103.28 110.095L104.304 110.269C104.024 110.797 103.923 111.401 104.017 111.991L102.992 111.817Z" fill="url(#paint156_linear_856_569)"/>
<path d="M353.755 63.3108C353.662 62.7205 353.763 62.1159 354.042 61.5882L355.067 61.7623C354.787 62.29 354.686 62.8946 354.779 63.4848L353.755 63.3108Z" fill="url(#paint157_linear_856_569)"/>
<path d="M270.059 219.819C268.441 217.106 266.686 214.363 265.578 211.416C265.06 210.124 264.953 208.702 265.273 207.347C265.653 206.072 266.389 204.933 267.393 204.064C267.828 203.661 268.302 203.301 268.807 202.989L269.759 202.779C270.526 202.623 271.293 202.491 272.066 202.353C275.965 201.645 279.937 200.553 283.369 198.506C285.574 197.197 287.562 195.103 287.808 192.432C287.835 192.126 287.835 191.819 287.808 191.513C287.808 191.339 285.298 192.222 285.166 192.27C284.567 192.504 283.968 192.75 283.369 193.032C283.327 193.032 282.674 193.326 282.686 193.482C282.92 196.105 281.261 198.422 279.146 199.802L279.014 199.886L278.325 200.042C276.858 200.36 275.139 201.021 273.671 201.321C271.514 201.771 269.651 202.011 267.615 202.851C265.938 203.485 264.357 204.35 262.918 205.42C260.756 207.125 259.528 209.652 260.175 212.4C260.592 213.844 261.186 215.231 261.942 216.53C262.721 218.03 263.553 219.531 264.428 220.953C265.626 222.916 267.423 225.665 265.71 227.874C264.257 227.949 262.802 227.949 261.349 227.874C258.258 227.778 255.155 227.64 252.082 228.084C250.083 228.404 248.126 228.948 246.247 229.704C244.402 230.412 242.449 231.217 241.03 232.633C238.855 234.8 238.376 238.095 238.334 241.036C238.292 244.109 238.658 247.23 237.783 250.225C236.953 253.059 235.122 255.493 232.631 257.073L232.326 257.247C232.374 257.247 231.781 257.548 232.14 257.529C232.551 257.473 232.954 257.367 233.338 257.211C234.538 256.856 235.698 256.377 236.801 255.783C239.383 254.309 241.397 252.009 242.521 249.253C243.683 246.372 243.462 243.251 243.42 240.184C243.378 237.117 243.588 233.864 245.499 231.403C245.862 230.954 246.278 230.551 246.739 230.202C247.862 230.012 248.996 229.895 250.135 229.854C253.232 229.71 256.329 229.968 259.426 229.974C260.906 229.991 262.381 229.807 263.811 229.428C265.22 229.02 266.597 228.511 267.932 227.904C268.781 227.565 269.574 227.102 270.286 226.529C272.437 224.621 271.263 221.836 270.059 219.819Z" fill="url(#paint158_linear_856_569)"/>
<path d="M279.368 199.628C279.104 199.922 278.846 200.228 278.559 200.505C278.457 200.601 278.355 200.697 278.253 200.781C280.034 200.196 281.749 199.426 283.369 198.482C285.574 197.173 287.562 195.079 287.808 192.408C287.835 192.102 287.835 191.795 287.808 191.49C287.808 191.315 285.298 192.198 285.166 192.246C284.567 192.48 283.968 192.726 283.369 193.008C283.327 193.008 282.674 193.302 282.686 193.458C282.914 195.985 281.374 198.236 279.368 199.628Z" fill="url(#paint159_linear_856_569)"/>
<path d="M270.059 219.819C268.441 217.106 266.686 214.363 265.578 211.416C265.06 210.124 264.953 208.702 265.272 207.347C265.653 206.072 266.388 204.934 267.393 204.064C267.75 203.734 268.133 203.433 268.537 203.163C267.881 203.093 267.219 203.138 266.578 203.295C265.275 203.85 264.046 204.563 262.918 205.42C260.756 207.125 259.528 209.652 260.175 212.401C260.592 213.844 261.186 215.231 261.942 216.53C262.72 218.03 263.553 219.531 264.428 220.953C265.554 222.808 267.225 225.365 265.961 227.502C266.094 227.645 266.19 227.82 266.24 228.009C266.29 228.198 266.293 228.397 266.249 228.588C266.812 228.366 267.375 228.132 267.932 227.886C268.781 227.547 269.574 227.084 270.286 226.511C272.437 224.621 271.263 221.836 270.059 219.819Z" fill="url(#paint160_linear_856_569)"/>
<path d="M190.205 91.3505C189.522 98.5108 193.518 105.203 201.353 104.489C207.271 103.943 213.519 103.084 215.831 96.6442C215.598 97.2804 211.141 96.4402 210.889 97.1424C210.093 99.355 208.603 101.25 206.642 102.544C205.647 103.193 204.563 103.696 203.426 104.039C202.293 104.309 202.509 104.315 204.073 104.039C203.293 103.993 202.521 103.856 201.772 103.631C196.327 102.178 194.674 95.7379 195.141 90.8523C195.141 91.1344 190.235 90.9903 190.205 91.3505Z" fill="url(#paint161_linear_856_569)"/>
<path d="M537.205 110.35C536.522 117.511 540.518 124.203 548.353 123.489C554.271 122.943 560.519 122.084 562.831 115.644C562.598 116.28 558.141 115.44 557.889 116.142C557.093 118.355 555.603 120.25 553.642 121.544C552.647 122.193 551.563 122.696 550.426 123.039C549.293 123.309 549.509 123.315 551.073 123.039C550.293 122.993 549.521 122.856 548.772 122.631C543.327 121.178 541.674 114.738 542.141 109.852C542.141 110.134 537.235 109.99 537.205 110.35Z" fill="url(#paint162_linear_856_569)"/>
<path d="M215.826 96.6202C215.592 97.2564 211.135 96.4161 210.884 97.1184C210.087 99.331 208.597 101.226 206.637 102.52C205.709 103.129 204.701 103.606 203.642 103.937C203.965 103.991 204.307 104.045 204.678 104.093C209.464 103.402 213.945 101.86 215.826 96.6202Z" fill="url(#paint163_linear_856_569)"/>
<path d="M562.826 115.62C562.592 116.256 558.135 115.416 557.884 116.118C557.087 118.331 555.597 120.226 553.637 121.52C552.709 122.129 551.701 122.606 550.642 122.937C550.965 122.991 551.307 123.045 551.678 123.093C556.464 122.402 560.945 120.86 562.826 115.62Z" fill="url(#paint164_linear_856_569)"/>
<path d="M506.278 25.4221C506.306 24.5752 506.258 23.7275 506.134 22.8893C506.103 22.353 505.938 21.833 505.655 21.3768C505.371 21.0495 504.995 20.817 504.576 20.7106C504.079 20.5245 503.576 20.3685 503.067 20.2244C502.087 19.9488 501.085 19.762 500.072 19.6662C497.675 19.4561 495.022 20.1164 492.841 19C492.817 19.0468 492.795 19.0949 492.775 19.144C492.82 19.8931 493.111 20.6063 493.602 21.1727C494.328 21.7771 495.225 22.1382 496.166 22.2051C497.179 22.3094 498.197 22.3535 499.215 22.3371C501.253 22.3665 503.267 22.7734 505.157 23.5375C505.404 23.6318 505.627 23.7793 505.81 23.9697L505.738 24.1797C505.359 25.1644 504.68 26.0044 503.798 26.5805C502.054 27.7809 500.072 28.021 498.328 28.0991C496.477 28.1891 494.668 27.997 492.823 28.033C491.888 28.0449 490.956 28.1393 490.038 28.3151C489.051 28.487 488.13 28.9248 487.372 29.5815C486.527 30.3716 485.984 31.4334 485.839 32.5825C485.781 33.3837 485.812 34.1887 485.928 34.9833C485.974 35.5994 486.107 36.2057 486.324 36.7839C486.669 37.473 487.187 38.0603 487.827 38.4885C488.612 39.0887 489.409 39.6409 490.176 40.2891C490.942 40.9373 491.757 41.6575 492.518 42.4018C492.87 42.734 493.18 43.1091 493.44 43.5182C493.482 43.5842 493.52 43.6523 493.554 43.7222C493.015 45.6609 490.984 46.1771 489.81 46.7773C489.019 47.1536 488.366 47.7685 487.941 48.5359C487.342 49.6102 487.342 50.9366 487.21 52.041C487.198 52.8776 487.264 53.7136 487.408 54.5379C487.408 54.5379 487.468 54.832 487.492 54.6399C487.678 53.3435 487.678 51.957 488.456 50.8166C489.045 50.055 489.842 49.4815 490.751 49.1661C491.657 48.8486 492.477 48.3247 493.147 47.6356C494.021 46.6452 494.057 45.3488 493.985 44.1604C493.896 42.6659 493.698 41.3455 492.949 40.3851C492.303 39.6269 491.59 38.9297 490.817 38.3025C490.018 37.6062 489.203 36.952 488.373 36.3398C487.674 35.9014 487.046 35.359 486.51 34.7313C486.433 34.632 486.363 34.5277 486.3 34.4191C486.387 34.1432 486.499 33.876 486.635 33.6209C487.146 32.6426 487.981 31.8725 488.996 31.4422C489.878 31.0938 490.81 30.8911 491.757 30.842C492.677 30.7663 493.602 30.7442 494.525 30.7759C496.36 30.9028 498.203 30.8827 500.036 30.7159C501.713 30.4938 503.821 30.0077 505.283 28.2011C505.888 27.3971 506.235 26.428 506.278 25.4221Z" fill="url(#paint165_linear_856_569)"/>
<path d="M159.277 6.42215C159.306 5.57525 159.258 4.72751 159.133 3.88933L159.097 3.64923C159.033 4.09108 158.912 4.52279 158.738 4.93367L158.786 4.98166L158.714 5.19175C158.335 6.17642 157.656 7.01643 156.773 7.59255C155.03 8.79295 153.047 9.03301 151.304 9.11104C149.453 9.20107 147.644 9.00901 145.799 9.04502C144.864 9.05689 143.932 9.15131 143.013 9.32714C142.027 9.499 141.105 9.93679 140.348 10.5935C139.502 11.3837 138.96 12.4454 138.814 13.5945C138.757 14.3957 138.787 15.2007 138.904 15.9953C138.904 16.1694 138.946 16.3435 138.97 16.5115C138.97 16.4215 138.97 16.3314 138.97 16.2414C139.005 15.8786 139.116 15.5271 139.293 15.2091C139.37 15.0042 139.458 14.8038 139.557 14.6089C140.068 13.6306 140.902 12.8605 141.917 12.4302C142.799 12.0817 143.732 11.879 144.679 11.83C145.599 11.7543 146.523 11.7322 147.446 11.7639C149.282 11.8908 151.125 11.8707 152.957 11.7039C154.635 11.4818 156.743 10.9957 158.205 9.18906C158.835 8.39773 159.209 7.43237 159.277 6.42215Z" fill="url(#paint166_linear_856_569)"/>
<path d="M506.277 25.4222C506.306 24.5753 506.258 23.7275 506.133 22.8893L506.097 22.6492C506.033 23.0911 505.912 23.5228 505.738 23.9337L505.786 23.9817L505.714 24.1917C505.335 25.1764 504.656 26.0164 503.773 26.5925C502.03 27.7929 500.047 28.033 498.304 28.111C496.453 28.2011 494.644 28.009 492.799 28.045C491.864 28.0569 490.932 28.1513 490.013 28.3271C489.027 28.499 488.105 28.9368 487.348 29.5935C486.502 30.3837 485.96 31.4454 485.814 32.5945C485.757 33.3957 485.787 34.2007 485.904 34.9953C485.904 35.1694 485.946 35.3435 485.97 35.5115C485.97 35.4215 485.97 35.3314 485.97 35.2414C486.005 34.8786 486.116 34.5271 486.293 34.2091C486.37 34.0042 486.458 33.8038 486.557 33.6089C487.068 32.6306 487.902 31.8605 488.917 31.4302C489.799 31.0817 490.732 30.879 491.679 30.83C492.599 30.7543 493.523 30.7322 494.446 30.7639C496.282 30.8908 498.125 30.8707 499.957 30.7039C501.635 30.4818 503.743 29.9957 505.205 28.1891C505.835 27.3977 506.209 26.4324 506.277 25.4222Z" fill="url(#paint167_linear_856_569)"/>
<path d="M146.938 25.1724C146.91 24.6294 146.851 24.0884 146.764 23.5518L146.728 23.7019C146.715 24.0474 146.644 24.3882 146.518 24.7102C145.979 26.6489 143.948 27.1651 142.774 27.7653C141.983 28.1416 141.33 28.7565 140.905 29.5238C140.384 30.5022 140.342 31.6726 140.21 32.7349C140.176 32.9616 140.154 33.19 140.145 33.4191C140.145 34.4455 140.384 35.964 140.456 35.6279C141.001 33.131 141.582 31.4265 141.9 31.2404C142.431 30.7766 143.039 30.4089 143.697 30.154C144.603 29.8366 145.423 29.3127 146.093 28.6235C146.973 27.6572 147.009 26.3608 146.938 25.1724Z" fill="url(#paint168_linear_856_569)"/>
<path d="M493.938 44.1724C493.91 43.6294 493.851 43.0884 493.764 42.5518L493.728 42.7019C493.715 43.0474 493.644 43.3882 493.518 43.7102C492.979 45.6489 490.948 46.1651 489.774 46.7653C488.983 47.1416 488.33 47.7565 487.905 48.5238C487.384 49.5022 487.342 50.6726 487.21 51.7349C487.176 51.9616 487.154 52.19 487.145 52.4191C487.145 53.4455 487.384 54.964 487.456 54.6279C488.001 52.131 488.582 50.4265 488.9 50.2404C489.431 49.7766 490.039 49.4089 490.697 49.154C491.603 48.8366 492.423 48.3127 493.093 47.6235C493.973 46.6572 494.009 45.3608 493.938 44.1724Z" fill="url(#paint169_linear_856_569)"/>
<path d="M283.48 145.582C285.685 144.478 285.379 141.675 285.211 139.58C285.026 137.251 285.074 135.181 286.954 133.92C286.254 134.226 285.661 134.4 284.762 134.791C282.558 135.769 282.066 137.9 282.168 140.126C282.27 142.245 282.965 145.528 280.593 146.729C281.27 146.386 282.612 145.984 283.48 145.528V145.582Z" fill="url(#paint170_linear_856_569)"/>
<path d="M265 141.945C268.074 143.888 271.345 145.497 274.758 146.747C276.094 147.233 277.753 147.821 279.167 147.347C280.499 146.986 281.784 146.469 282.995 145.804C282.108 146.404 280.856 146.404 279.964 146.945C279.792 147.072 279.605 147.177 279.407 147.257L282.228 146.188L281.929 146.296L282.138 146.224C279.856 146.777 277.346 145.498 275.285 144.634C272.766 143.569 270.338 142.301 268.025 140.841C267.857 140.733 266.683 141.327 266.51 141.393C266.031 141.651 265.525 141.852 265 141.993V141.945Z" fill="url(#paint171_linear_856_569)"/>
<path d="M297.438 139.346C298.052 139.298 298.635 139.052 299.099 138.646C299.563 138.239 299.884 137.693 300.013 137.089C300.433 135.583 300.84 134.334 302.463 133.788C301.469 134.118 300.259 133.854 299.253 134.19C298.664 134.392 298.139 134.747 297.734 135.22C297.328 135.693 297.056 136.266 296.946 136.879C296.617 138.206 296.186 139.28 294.754 139.67L294.976 139.634L294.664 139.682C294.065 139.766 295.155 139.64 295.263 139.628C295.994 139.544 296.731 139.448 297.462 139.346H297.438Z" fill="url(#paint172_linear_856_569)"/>
<path d="M285.714 134.473C286.114 134.362 286.531 134.331 286.942 134.382C287.354 134.434 287.751 134.567 288.11 134.773C290.033 135.799 291.531 138.422 293.202 139.43C294.328 140.108 295.527 139.946 296.707 139.592C297.079 139.541 297.441 139.438 297.785 139.286L298.306 139.13C297.297 139.003 296.346 138.586 295.568 137.93C294.292 136.945 293.244 135.445 292.046 134.418C291.605 134.005 291.07 133.708 290.486 133.553C289.903 133.398 289.291 133.39 288.704 133.53H288.739L288.632 133.566H288.53C287.501 133.775 286.498 134.091 285.535 134.509L285.714 134.473Z" fill="url(#paint173_linear_856_569)"/>
<path d="M311.958 158.513C312.174 156.79 311.485 155.128 310.946 153.519C310.197 151.262 308.49 149.858 306.393 148.886C303.907 147.739 301.715 147.925 299.804 149.894C298.108 151.623 296.773 154.197 293.981 153.993C294.095 154.347 294.215 154.702 294.328 155.056L293.574 152.685C293.502 152.451 293.256 151.731 293.238 151.677C293.406 152.277 293.604 152.877 293.789 153.477L294.544 155.842C294.626 156.208 294.742 156.566 294.892 156.91C298.773 157.192 299.888 152.247 303.194 151.154C305.081 150.554 307.387 151.713 308.957 152.685C309.737 153.189 310.42 153.83 310.976 154.576C311.521 155.29 311.437 156.19 311.095 154.227C311.161 154.685 311.161 155.15 311.095 155.608C310.982 156.532 312.12 157.613 312.006 158.519L311.958 158.513Z" fill="url(#paint174_linear_856_569)"/>
<path d="M160.997 169.286C161.752 171.045 160.164 172.564 159.032 173.704C157.75 174.994 156.744 176.255 157.235 177.947C156.977 177.413 156.708 177.011 156.372 176.327C155.546 174.634 156.33 173.122 157.504 171.849C158.679 170.577 160.691 169.028 159.901 167.126C160.134 167.672 160.727 168.584 161.027 169.286H160.997Z" fill="url(#paint175_linear_856_569)"/>
<path d="M507.997 188.286C508.752 190.045 507.164 191.564 506.032 192.704C504.75 193.994 503.744 195.255 504.235 196.947C503.977 196.413 503.708 196.011 503.372 195.327C502.546 193.634 503.33 192.122 504.504 190.849C505.679 189.577 507.691 188.028 506.901 186.126C507.134 186.672 507.727 187.584 508.027 188.286H507.997Z" fill="url(#paint176_linear_856_569)"/>
<path d="M148.183 162.174C150.979 162.577 153.725 163.271 156.378 164.245C157.42 164.629 158.69 165.115 159.295 166.111C159.908 166.996 160.413 167.951 160.799 168.956C160.559 168.176 159.816 167.54 159.571 166.754C159.531 166.591 159.472 166.434 159.397 166.285C159.774 166.976 160.158 167.66 160.535 168.344L160.415 168.134L160.499 168.278C159.421 166.802 157.282 166.297 155.629 165.769C153.596 165.141 151.517 164.675 149.411 164.377C149.255 164.377 148.854 163.41 148.782 163.284C148.71 163.158 148.309 162.192 148.183 162.174Z" fill="url(#paint177_linear_856_569)"/>
<path d="M495.183 181.174C497.979 181.577 500.725 182.271 503.378 183.245C504.42 183.629 505.69 184.115 506.295 185.111C506.908 185.996 507.413 186.951 507.799 187.956C507.559 187.176 506.816 186.54 506.571 185.754C506.531 185.591 506.472 185.434 506.397 185.285C506.774 185.976 507.158 186.66 507.535 187.344L507.415 187.134L507.499 187.278C506.421 185.802 504.282 185.297 502.629 184.769C500.596 184.141 498.517 183.675 496.411 183.377C496.255 183.377 495.854 182.41 495.782 182.284C495.71 182.158 495.309 181.192 495.183 181.174Z" fill="url(#paint178_linear_856_569)"/>
<path d="M166.166 180.012C166.508 180.35 166.733 180.789 166.806 181.265C166.88 181.741 166.798 182.227 166.574 182.653C166.064 183.763 165.675 184.706 166.37 185.852C165.944 185.15 165.094 184.7 164.663 183.991C164.417 183.574 164.288 183.098 164.288 182.614C164.288 182.129 164.417 181.654 164.663 181.236C165.136 180.282 165.411 179.436 164.758 178.47L164.872 178.602L164.71 178.421C164.399 178.073 164.98 178.692 165.028 178.74C165.417 179.16 165.813 179.586 166.19 180.012H166.166Z" fill="url(#paint179_linear_856_569)"/>
<path d="M513.166 199.012C513.508 199.35 513.733 199.789 513.806 200.265C513.88 200.741 513.798 201.227 513.574 201.653C513.064 202.763 512.675 203.706 513.37 204.852C512.944 204.15 512.094 203.7 511.663 202.991C511.417 202.574 511.288 202.098 511.288 201.614C511.288 201.129 511.417 200.654 511.663 200.236C512.136 199.282 512.411 198.436 511.758 197.47L511.872 197.602L511.71 197.421C511.399 197.073 511.98 197.692 512.028 197.74C512.417 198.16 512.813 198.586 513.19 199.012H513.166Z" fill="url(#paint180_linear_856_569)"/>
<path d="M156.755 177.011C156.937 177.28 157.171 177.509 157.443 177.686C157.714 177.864 158.018 177.985 158.337 178.043C159.99 178.397 162.195 177.593 163.728 177.839C164.188 177.943 164.62 178.146 164.994 178.434C165.367 178.722 165.673 179.089 165.891 179.508C166.088 179.725 166.253 179.97 166.382 180.234L166.609 180.582C165.951 180.148 165.181 179.914 164.393 179.91C163.135 179.85 161.763 180.216 160.535 180.222C160.067 180.247 159.6 180.155 159.176 179.955C158.751 179.755 158.383 179.453 158.103 179.076L158.055 179.004C158.037 178.983 158.021 178.961 158.007 178.938C157.506 178.3 157.072 177.612 156.713 176.885L156.755 177.011Z" fill="url(#paint181_linear_856_569)"/>
<path d="M503.755 196.011C503.937 196.28 504.171 196.509 504.443 196.686C504.714 196.864 505.018 196.985 505.337 197.043C506.99 197.397 509.195 196.593 510.728 196.839C511.188 196.943 511.62 197.146 511.994 197.434C512.367 197.722 512.673 198.089 512.891 198.508C513.088 198.725 513.253 198.97 513.382 199.234L513.609 199.582C512.951 199.148 512.181 198.914 511.393 198.91C510.135 198.85 508.763 199.216 507.535 199.222C507.067 199.247 506.6 199.155 506.176 198.955C505.751 198.755 505.383 198.453 505.103 198.076L505.055 198.004C505.037 197.983 505.021 197.961 505.007 197.938C504.506 197.3 504.072 196.612 503.713 195.885L503.755 196.011Z" fill="url(#paint182_linear_856_569)"/>
<defs>
<linearGradient id="paint0_linear_856_569" x1="168.688" y1="184.351" x2="173.75" y2="184.351" gradientUnits="userSpaceOnUse">
<stop stop-color="#F8B54A"/>
<stop offset="1" stop-color="#F8A629"/>
</linearGradient>
<linearGradient id="paint1_linear_856_569" x1="144.966" y1="216.3" x2="150.34" y2="216.3" gradientUnits="userSpaceOnUse">
<stop stop-color="#B5188D"/>
<stop offset="1" stop-color="#4E69AE"/>
</linearGradient>
<linearGradient id="paint2_linear_856_569" x1="102.705" y1="212.285" x2="111.05" y2="212.285" gradientUnits="userSpaceOnUse">
<stop stop-color="#F44274"/>
<stop offset="1" stop-color="#E51F9A"/>
</linearGradient>
<linearGradient id="paint3_linear_856_569" x1="88.7783" y1="190.033" x2="92.8113" y2="197.971" gradientUnits="userSpaceOnUse">
<stop stop-color="#6DD0E7"/>
<stop offset="1" stop-color="#01A7DB"/>
</linearGradient>
<linearGradient id="paint4_linear_856_569" x1="65.1338" y1="196.019" x2="72.8913" y2="196.019" gradientUnits="userSpaceOnUse">
<stop stop-color="#F71873"/>
<stop offset="1" stop-color="#F8A629"/>
</linearGradient>
<linearGradient id="paint5_linear_856_569" x1="6179.77" y1="-25219.4" x2="6256.16" y2="-25410.5" gradientUnits="userSpaceOnUse">
<stop stop-color="#F44274"/>
<stop offset="1" stop-color="#E51F9A"/>
</linearGradient>
<linearGradient id="paint6_linear_856_569" x1="-7.88818" y1="118.281" x2="0.917566" y2="118.281" gradientUnits="userSpaceOnUse">
<stop stop-color="#BE1E68"/>
<stop offset="1" stop-color="#B5188D"/>
</linearGradient>
<linearGradient id="paint7_linear_856_569" x1="22688.5" y1="4845.12" x2="23442.2" y2="4845.12" gradientUnits="userSpaceOnUse">
<stop stop-color="#F44274"/>
<stop offset="1" stop-color="#E51F9A"/>
</linearGradient>
<linearGradient id="paint8_linear_856_569" x1="48.0015" y1="138.406" x2="59.9401" y2="138.406" gradientUnits="userSpaceOnUse">
<stop stop-color="#B4DF86"/>
<stop offset="1" stop-color="#84C743"/>
</linearGradient>
<linearGradient id="paint9_linear_856_569" x1="6520.81" y1="3913.45" x2="6574.7" y2="3913.45" gradientUnits="userSpaceOnUse">
<stop stop-color="#F44274"/>
<stop offset="1" stop-color="#E51F9A"/>
</linearGradient>
<linearGradient id="paint10_linear_856_569" x1="4603.86" y1="5035.71" x2="4626.91" y2="5035.71" gradientUnits="userSpaceOnUse">
<stop stop-color="#B5188D"/>
<stop offset="1" stop-color="#4E69AE"/>
</linearGradient>
<linearGradient id="paint11_linear_856_569" x1="12607.4" y1="8505.61" x2="12784.8" y2="8505.61" gradientUnits="userSpaceOnUse">
<stop stop-color="#6DD0E7"/>
<stop offset="1" stop-color="#01A7DB"/>
</linearGradient>
<linearGradient id="paint12_linear_856_569" x1="10933.5" y1="8334.64" x2="11057.9" y2="8334.64" gradientUnits="userSpaceOnUse">
<stop stop-color="#B4DF86"/>
<stop offset="1" stop-color="#84C743"/>
</linearGradient>
<linearGradient id="paint13_linear_856_569" x1="6765.7" y1="3177.21" x2="6806.27" y2="3177.21" gradientUnits="userSpaceOnUse">
<stop stop-color="#BE1E68"/>
<stop offset="1" stop-color="#B5188D"/>
</linearGradient>
<linearGradient id="paint14_linear_856_569" x1="10596.4" y1="9124.11" x2="10749.8" y2="9124.11" gradientUnits="userSpaceOnUse">
<stop stop-color="#F44274"/>
<stop offset="1" stop-color="#E51F9A"/>
</linearGradient>
<linearGradient id="paint15_linear_856_569" x1="9113.79" y1="5408.74" x2="9211.63" y2="5408.74" gradientUnits="userSpaceOnUse">
<stop stop-color="#6DD0E7"/>
<stop offset="1" stop-color="#01A7DB"/>
</linearGradient>
<linearGradient id="paint16_linear_856_569" x1="7949.39" y1="7496.79" x2="8014.95" y2="7496.79" gradientUnits="userSpaceOnUse">
<stop stop-color="#BE1E68"/>
<stop offset="1" stop-color="#B5188D"/>
</linearGradient>
<linearGradient id="paint17_linear_856_569" x1="10547.7" y1="6117.75" x2="10645.3" y2="6117.75" gradientUnits="userSpaceOnUse">
<stop stop-color="#B5188D"/>
<stop offset="1" stop-color="#4E69AE"/>
</linearGradient>
<linearGradient id="paint18_linear_856_569" x1="12678.3" y1="4987.39" x2="12805.3" y2="4987.39" gradientUnits="userSpaceOnUse">
<stop stop-color="#FBE422"/>
<stop offset="1" stop-color="#C8D92B"/>
</linearGradient>
<linearGradient id="paint19_linear_856_569" x1="9251.82" y1="7995.61" x2="9374.57" y2="7995.61" gradientUnits="userSpaceOnUse">
<stop stop-color="#B5188D"/>
<stop offset="1" stop-color="#4E69AE"/>
</linearGradient>
<linearGradient id="paint20_linear_856_569" x1="11171.9" y1="7200.45" x2="11332.4" y2="7200.45" gradientUnits="userSpaceOnUse">
<stop stop-color="#F8B54A"/>
<stop offset="1" stop-color="#F8A629"/>
</linearGradient>
<linearGradient id="paint21_linear_856_569" x1="9525.68" y1="9031.85" x2="9639.26" y2="9031.85" gradientUnits="userSpaceOnUse">
<stop stop-color="#B4DF86"/>
<stop offset="1" stop-color="#84C743"/>
</linearGradient>
<linearGradient id="paint22_linear_856_569" x1="13519.9" y1="9065.59" x2="13707.8" y2="9065.59" gradientUnits="userSpaceOnUse">
<stop stop-color="#F8B54A"/>
<stop offset="1" stop-color="#F8A629"/>
</linearGradient>
<linearGradient id="paint23_linear_856_569" x1="8368.68" y1="4368.86" x2="8435.98" y2="4368.86" gradientUnits="userSpaceOnUse">
<stop stop-color="#6DD0E7"/>
<stop offset="1" stop-color="#01A7DB"/>
</linearGradient>
<linearGradient id="paint24_linear_856_569" x1="9176.86" y1="5579.64" x2="9264.7" y2="5579.64" gradientUnits="userSpaceOnUse">
<stop stop-color="#BE1E68"/>
<stop offset="1" stop-color="#B5188D"/>
</linearGradient>
<linearGradient id="paint25_linear_856_569" x1="7123.88" y1="4593.24" x2="7188.8" y2="4593.24" gradientUnits="userSpaceOnUse">
<stop stop-color="#F8B54A"/>
<stop offset="1" stop-color="#F8A629"/>
</linearGradient>
<linearGradient id="paint26_linear_856_569" x1="7009.02" y1="4980.59" x2="7068.68" y2="4980.59" gradientUnits="userSpaceOnUse">
<stop stop-color="#BE1E68"/>
<stop offset="1" stop-color="#B5188D"/>
</linearGradient>
<linearGradient id="paint27_linear_856_569" x1="10036.1" y1="9263.33" x2="10189.9" y2="9263.33" gradientUnits="userSpaceOnUse">
<stop stop-color="#6DD0E7"/>
<stop offset="1" stop-color="#01A7DB"/>
</linearGradient>
<linearGradient id="paint28_linear_856_569" x1="7123.05" y1="7924.27" x2="7200.76" y2="7924.27" gradientUnits="userSpaceOnUse">
<stop stop-color="#F44274"/>
<stop offset="1" stop-color="#E51F9A"/>
</linearGradient>
<linearGradient id="paint29_linear_856_569" x1="9420.23" y1="7975.11" x2="9567.14" y2="7975.11" gradientUnits="userSpaceOnUse">
<stop stop-color="#B5188D"/>
<stop offset="1" stop-color="#4E69AE"/>
</linearGradient>
<linearGradient id="paint30_linear_856_569" x1="6527.71" y1="6858.69" x2="6594.18" y2="6858.69" gradientUnits="userSpaceOnUse">
<stop stop-color="#BE1E68"/>
<stop offset="1" stop-color="#B5188D"/>
</linearGradient>
<linearGradient id="paint31_linear_856_569" x1="9223.78" y1="5075.03" x2="9326.89" y2="5075.03" gradientUnits="userSpaceOnUse">
<stop stop-color="#F71873"/>
<stop offset="1" stop-color="#F8A629"/>
</linearGradient>
<linearGradient id="paint32_linear_856_569" x1="7353.95" y1="2880.74" x2="7420.38" y2="2880.74" gradientUnits="userSpaceOnUse">
<stop stop-color="#FBE422"/>
<stop offset="1" stop-color="#C8D92B"/>
</linearGradient>
<linearGradient id="paint33_linear_856_569" x1="6608.46" y1="6071.95" x2="6659.84" y2="6071.95" gradientUnits="userSpaceOnUse">
<stop stop-color="#BE1E68"/>
<stop offset="1" stop-color="#B5188D"/>
</linearGradient>
<linearGradient id="paint34_linear_856_569" x1="11419.1" y1="7115.14" x2="11568.5" y2="7115.14" gradientUnits="userSpaceOnUse">
<stop stop-color="#6DD0E7"/>
<stop offset="1" stop-color="#01A7DB"/>
</linearGradient>
<linearGradient id="paint35_linear_856_569" x1="7915.89" y1="8689" x2="8003.9" y2="8689" gradientUnits="userSpaceOnUse">
<stop stop-color="#FBE422"/>
<stop offset="1" stop-color="#C8D92B"/>
</linearGradient>
<linearGradient id="paint36_linear_856_569" x1="8320.37" y1="6007.99" x2="8402.65" y2="6007.99" gradientUnits="userSpaceOnUse">
<stop stop-color="#BE1E68"/>
<stop offset="1" stop-color="#B5188D"/>
</linearGradient>
<linearGradient id="paint37_linear_856_569" x1="12968.3" y1="9683.61" x2="13158.3" y2="9683.61" gradientUnits="userSpaceOnUse">
<stop stop-color="#B4DF86"/>
<stop offset="1" stop-color="#84C743"/>
</linearGradient>
<linearGradient id="paint38_linear_856_569" x1="9551.73" y1="5269.82" x2="9636.99" y2="5269.82" gradientUnits="userSpaceOnUse">
<stop stop-color="#B5188D"/>
<stop offset="1" stop-color="#4E69AE"/>
</linearGradient>
<linearGradient id="paint39_linear_856_569" x1="9864.04" y1="3713.18" x2="9951.31" y2="3713.18" gradientUnits="userSpaceOnUse">
<stop stop-color="#FBE422"/>
<stop offset="1" stop-color="#C8D92B"/>
</linearGradient>
<linearGradient id="paint40_linear_856_569" x1="161.218" y1="53.952" x2="167.951" y2="53.952" gradientUnits="userSpaceOnUse">
<stop stop-color="#F71873"/>
<stop offset="1" stop-color="#C6211B"/>
</linearGradient>
<linearGradient id="paint41_linear_856_569" x1="6423.55" y1="2832.24" x2="6470.25" y2="2832.24" gradientUnits="userSpaceOnUse">
<stop stop-color="#F71873"/>
<stop offset="1" stop-color="#F8A629"/>
</linearGradient>
<linearGradient id="paint42_linear_856_569" x1="6135.03" y1="4090.98" x2="6186.06" y2="4090.98" gradientUnits="userSpaceOnUse">
<stop stop-color="#6DD0E7"/>
<stop offset="1" stop-color="#01A7DB"/>
</linearGradient>
<linearGradient id="paint43_linear_856_569" x1="8040.25" y1="3523.36" x2="8091.28" y2="3523.36" gradientUnits="userSpaceOnUse">
<stop stop-color="#F71873"/>
<stop offset="1" stop-color="#C6211B"/>
</linearGradient>
<linearGradient id="paint44_linear_856_569" x1="271.607" y1="144.6" x2="278.376" y2="144.6" gradientUnits="userSpaceOnUse">
<stop stop-color="#F87D5E"/>
<stop offset="1" stop-color="#EB622C"/>
</linearGradient>
<linearGradient id="paint45_linear_856_569" x1="10469.8" y1="11619" x2="10561.8" y2="11619" gradientUnits="userSpaceOnUse">
<stop stop-color="#FBE422"/>
<stop offset="1" stop-color="#C8D92B"/>
</linearGradient>
<linearGradient id="paint46_linear_856_569" x1="9810.14" y1="4121.87" x2="9895.11" y2="4121.87" gradientUnits="userSpaceOnUse">
<stop stop-color="#6DD0E7"/>
<stop offset="1" stop-color="#01A7DB"/>
</linearGradient>
<linearGradient id="paint47_linear_856_569" x1="10679.4" y1="9669.93" x2="10802.1" y2="9669.93" gradientUnits="userSpaceOnUse">
<stop stop-color="#F71873"/>
<stop offset="1" stop-color="#F8A629"/>
</linearGradient>
<linearGradient id="paint48_linear_856_569" x1="2512.89" y1="11742.6" x2="2618.25" y2="11826.2" gradientUnits="userSpaceOnUse">
<stop stop-color="#F71873"/>
<stop offset="1" stop-color="#F8A629"/>
</linearGradient>
<linearGradient id="paint49_linear_856_569" x1="8060.45" y1="3484.84" x2="8128.64" y2="3484.84" gradientUnits="userSpaceOnUse">
<stop stop-color="#F8B54A"/>
<stop offset="1" stop-color="#F8A629"/>
</linearGradient>
<linearGradient id="paint50_linear_856_569" x1="7731.85" y1="6083.74" x2="7801.98" y2="6083.74" gradientUnits="userSpaceOnUse">
<stop stop-color="#F71873"/>
<stop offset="1" stop-color="#C6211B"/>
</linearGradient>
<linearGradient id="paint51_linear_856_569" x1="11015.6" y1="11819.1" x2="11138.3" y2="11819.1" gradientUnits="userSpaceOnUse">
<stop stop-color="#F71873"/>
<stop offset="1" stop-color="#F8A629"/>
</linearGradient>
<linearGradient id="paint52_linear_856_569" x1="3592.46" y1="-17317.7" x2="3610.39" y2="-17377" gradientUnits="userSpaceOnUse">
<stop stop-color="#F8B54A"/>
<stop offset="1" stop-color="#F8A629"/>
</linearGradient>
<linearGradient id="paint53_linear_856_569" x1="3623.68" y1="4404.17" x2="3651.44" y2="4410.31" gradientUnits="userSpaceOnUse">
<stop stop-color="#F71873"/>
<stop offset="1" stop-color="#F8A629"/>
</linearGradient>
<linearGradient id="paint54_linear_856_569" x1="6473.38" y1="4269.5" x2="6534.24" y2="4269.5" gradientUnits="userSpaceOnUse">
<stop stop-color="#BE1E68"/>
<stop offset="1" stop-color="#B5188D"/>
</linearGradient>
<linearGradient id="paint55_linear_856_569" x1="3596.68" y1="3892.54" x2="3625.69" y2="3892.54" gradientUnits="userSpaceOnUse">
<stop stop-color="#F71873"/>
<stop offset="1" stop-color="#F8A629"/>
</linearGradient>
<linearGradient id="paint56_linear_856_569" x1="6123.93" y1="3754.52" x2="6172.39" y2="3754.52" gradientUnits="userSpaceOnUse">
<stop stop-color="#F71873"/>
<stop offset="1" stop-color="#F8A629"/>
</linearGradient>
<linearGradient id="paint57_linear_856_569" x1="4991.21" y1="4569.43" x2="5038.21" y2="4569.43" gradientUnits="userSpaceOnUse">
<stop stop-color="#F8B54A"/>
<stop offset="1" stop-color="#F8A629"/>
</linearGradient>
<linearGradient id="paint58_linear_856_569" x1="8406.2" y1="4205.25" x2="8484.33" y2="4205.25" gradientUnits="userSpaceOnUse">
<stop stop-color="#F8B54A"/>
<stop offset="1" stop-color="#F8A629"/>
</linearGradient>
<linearGradient id="paint59_linear_856_569" x1="7325.09" y1="4776.69" x2="7421.86" y2="4776.69" gradientUnits="userSpaceOnUse">
<stop stop-color="#6DD0E7"/>
<stop offset="1" stop-color="#01A7DB"/>
</linearGradient>
<linearGradient id="paint60_linear_856_569" x1="9548.5" y1="8220.03" x2="9715.96" y2="8220.03" gradientUnits="userSpaceOnUse">
<stop stop-color="#F8B54A"/>
<stop offset="1" stop-color="#F8A629"/>
</linearGradient>
<linearGradient id="paint61_linear_856_569" x1="7489.4" y1="7362.2" x2="7533.81" y2="7362.2" gradientUnits="userSpaceOnUse">
<stop stop-color="#B4DF86"/>
<stop offset="1" stop-color="#84C743"/>
</linearGradient>
<linearGradient id="paint62_linear_856_569" x1="5971.39" y1="11404.4" x2="6071.5" y2="11430.1" gradientUnits="userSpaceOnUse">
<stop stop-color="#F71873"/>
<stop offset="1" stop-color="#F8A629"/>
</linearGradient>
<linearGradient id="paint63_linear_856_569" x1="3821.26" y1="9653.58" x2="3864.24" y2="9664.63" gradientUnits="userSpaceOnUse">
<stop stop-color="#B4DF86"/>
<stop offset="1" stop-color="#84C743"/>
</linearGradient>
<linearGradient id="paint64_linear_856_569" x1="7326.45" y1="5784.61" x2="7390.99" y2="5784.61" gradientUnits="userSpaceOnUse">
<stop stop-color="#B4DF86"/>
<stop offset="1" stop-color="#84C743"/>
</linearGradient>
<linearGradient id="paint65_linear_856_569" x1="7358.03" y1="4156.36" x2="7441.66" y2="4156.36" gradientUnits="userSpaceOnUse">
<stop stop-color="#FBE422"/>
<stop offset="1" stop-color="#C8D92B"/>
</linearGradient>
<linearGradient id="paint66_linear_856_569" x1="13350.8" y1="-40896" x2="13868.2" y2="-42119.2" gradientUnits="userSpaceOnUse">
<stop stop-color="#B4DF86"/>
<stop offset="1" stop-color="#84C743"/>
</linearGradient>
<linearGradient id="paint67_linear_856_569" x1="5075.44" y1="-45687.4" x2="5323.09" y2="-46973" gradientUnits="userSpaceOnUse">
<stop stop-color="#F71873"/>
<stop offset="1" stop-color="#C6211B"/>
</linearGradient>
<linearGradient id="paint68_linear_856_569" x1="9721.64" y1="10298.7" x2="9824.59" y2="10298.7" gradientUnits="userSpaceOnUse">
<stop stop-color="#F71873"/>
<stop offset="1" stop-color="#C6211B"/>
</linearGradient>
<linearGradient id="paint69_linear_856_569" x1="17765.6" y1="2575.86" x2="18043.4" y2="2752.43" gradientUnits="userSpaceOnUse">
<stop stop-color="#F71873"/>
<stop offset="1" stop-color="#F8A629"/>
</linearGradient>
<linearGradient id="paint70_linear_856_569" x1="1341.77" y1="31106.6" x2="740.855" y2="31536.1" gradientUnits="userSpaceOnUse">
<stop stop-color="#FBE422"/>
<stop offset="1" stop-color="#C8D92B"/>
</linearGradient>
<linearGradient id="paint71_linear_856_569" x1="-47086.1" y1="21007.1" x2="-47287.9" y2="20736.1" gradientUnits="userSpaceOnUse">
<stop stop-color="#BE1E68"/>
<stop offset="1" stop-color="#B5188D"/>
</linearGradient>
<linearGradient id="paint72_linear_856_569" x1="27817.3" y1="11433.2" x2="27817.3" y2="11095.6" gradientUnits="userSpaceOnUse">
<stop stop-color="#B5188D"/>
<stop offset="1" stop-color="#4E69AE"/>
</linearGradient>
<linearGradient id="paint73_linear_856_569" x1="22108.1" y1="-1261.69" x2="22618.6" y2="-1685.16" gradientUnits="userSpaceOnUse">
<stop stop-color="#F71873"/>
<stop offset="1" stop-color="#C6211B"/>
</linearGradient>
<linearGradient id="paint74_linear_856_569" x1="-5060.2" y1="167.764" x2="-5062.86" y2="169.095" gradientUnits="userSpaceOnUse">
<stop stop-color="#F8B54A"/>
<stop offset="1" stop-color="#F8A629"/>
</linearGradient>
<linearGradient id="paint75_linear_856_569" x1="-3169.03" y1="698.704" x2="-3171.24" y2="699.811" gradientUnits="userSpaceOnUse">
<stop stop-color="#B5188D"/>
<stop offset="1" stop-color="#4E69AE"/>
</linearGradient>
<linearGradient id="paint76_linear_856_569" x1="-7830.43" y1="331.987" x2="-7836.55" y2="335.049" gradientUnits="userSpaceOnUse">
<stop stop-color="#F44274"/>
<stop offset="1" stop-color="#E51F9A"/>
</linearGradient>
<linearGradient id="paint77_linear_856_569" x1="-5496.75" y1="-4741.11" x2="-5503.64" y2="-4746.2" gradientUnits="userSpaceOnUse">
<stop stop-color="#6DD0E7"/>
<stop offset="1" stop-color="#01A7DB"/>
</linearGradient>
<linearGradient id="paint78_linear_856_569" x1="-5900.79" y1="-358.934" x2="-5905.21" y2="-356.721" gradientUnits="userSpaceOnUse">
<stop stop-color="#F71873"/>
<stop offset="1" stop-color="#F8A629"/>
</linearGradient>
<linearGradient id="paint79_linear_856_569" x1="-4420.84" y1="789.891" x2="-4424.03" y2="791.486" gradientUnits="userSpaceOnUse">
<stop stop-color="#F44274"/>
<stop offset="1" stop-color="#E51F9A"/>
</linearGradient>
<linearGradient id="paint80_linear_856_569" x1="-8022.52" y1="1115.47" x2="-8029.38" y2="1118.9" gradientUnits="userSpaceOnUse">
<stop stop-color="#BE1E68"/>
<stop offset="1" stop-color="#B5188D"/>
</linearGradient>
<linearGradient id="paint81_linear_856_569" x1="-6836.13" y1="949.579" x2="-6841.37" y2="952.202" gradientUnits="userSpaceOnUse">
<stop stop-color="#FBE422"/>
<stop offset="1" stop-color="#C8D92B"/>
</linearGradient>
<linearGradient id="paint82_linear_856_569" x1="-5191.66" y1="3234.74" x2="-5196.29" y2="3240.51" gradientUnits="userSpaceOnUse">
<stop stop-color="#F44274"/>
<stop offset="1" stop-color="#E51F9A"/>
</linearGradient>
<linearGradient id="paint83_linear_856_569" x1="-7371.01" y1="2952.7" x2="-7376.3" y2="2959.23" gradientUnits="userSpaceOnUse">
<stop stop-color="#F44274"/>
<stop offset="1" stop-color="#E51F9A"/>
</linearGradient>
<linearGradient id="paint84_linear_856_569" x1="-7584.32" y1="3644.07" x2="-7590.71" y2="3651.97" gradientUnits="userSpaceOnUse">
<stop stop-color="#B4DF86"/>
<stop offset="1" stop-color="#84C743"/>
</linearGradient>
<linearGradient id="paint85_linear_856_569" x1="-3818.65" y1="1709.72" x2="-3820.63" y2="1712.17" gradientUnits="userSpaceOnUse">
<stop stop-color="#F44274"/>
<stop offset="1" stop-color="#E51F9A"/>
</linearGradient>
<linearGradient id="paint86_linear_856_569" x1="-3375.04" y1="1681.15" x2="-3376.26" y2="1682.66" gradientUnits="userSpaceOnUse">
<stop stop-color="#B5188D"/>
<stop offset="1" stop-color="#4E69AE"/>
</linearGradient>
<linearGradient id="paint87_linear_856_569" x1="-7163.9" y1="3769.52" x2="-7170.07" y2="3777.14" gradientUnits="userSpaceOnUse">
<stop stop-color="#6DD0E7"/>
<stop offset="1" stop-color="#01A7DB"/>
</linearGradient>
<linearGradient id="paint88_linear_856_569" x1="-6195.73" y1="3581.53" x2="-6200.44" y2="3587.35" gradientUnits="userSpaceOnUse">
<stop stop-color="#B4DF86"/>
<stop offset="1" stop-color="#84C743"/>
</linearGradient>
<linearGradient id="paint89_linear_856_569" x1="-3496.79" y1="1338.65" x2="-3498.33" y2="1340.56" gradientUnits="userSpaceOnUse">
<stop stop-color="#BE1E68"/>
<stop offset="1" stop-color="#B5188D"/>
</linearGradient>
<linearGradient id="paint90_linear_856_569" x1="-6859.93" y1="-684.005" x2="-6866" y2="-680.971" gradientUnits="userSpaceOnUse">
<stop stop-color="#F44274"/>
<stop offset="1" stop-color="#E51F9A"/>
</linearGradient>
<linearGradient id="paint91_linear_856_569" x1="-7152.37" y1="794.838" x2="-7158.65" y2="797.983" gradientUnits="userSpaceOnUse">
<stop stop-color="#B5188D"/>
<stop offset="1" stop-color="#4E69AE"/>
</linearGradient>
<linearGradient id="paint92_linear_856_569" x1="-7390.69" y1="1210.6" x2="-7398.17" y2="1214.34" gradientUnits="userSpaceOnUse">
<stop stop-color="#F8B54A"/>
<stop offset="1" stop-color="#F8A629"/>
</linearGradient>
<linearGradient id="paint93_linear_856_569" x1="-8981.11" y1="186.227" x2="-8988.09" y2="189.719" gradientUnits="userSpaceOnUse">
<stop stop-color="#B4DF86"/>
<stop offset="1" stop-color="#84C743"/>
</linearGradient>
<linearGradient id="paint94_linear_856_569" x1="-7842.53" y1="-1048.31" x2="-7850.04" y2="-1044.55" gradientUnits="userSpaceOnUse">
<stop stop-color="#F8B54A"/>
<stop offset="1" stop-color="#F8A629"/>
</linearGradient>
<linearGradient id="paint95_linear_856_569" x1="-4195.19" y1="-415.115" x2="-4198.11" y2="-413.657" gradientUnits="userSpaceOnUse">
<stop stop-color="#6DD0E7"/>
<stop offset="1" stop-color="#01A7DB"/>
</linearGradient>
<linearGradient id="paint96_linear_856_569" x1="-4168.91" y1="-972.772" x2="-4172.08" y2="-971.188" gradientUnits="userSpaceOnUse">
<stop stop-color="#BE1E68"/>
<stop offset="1" stop-color="#B5188D"/>
</linearGradient>
<linearGradient id="paint97_linear_856_569" x1="-7647.02" y1="1265.32" x2="-7655.06" y2="1269.34" gradientUnits="userSpaceOnUse">
<stop stop-color="#B4DF86"/>
<stop offset="1" stop-color="#84C743"/>
</linearGradient>
<linearGradient id="paint98_linear_856_569" x1="-8945.14" y1="732.326" x2="-8953.14" y2="736.327" gradientUnits="userSpaceOnUse">
<stop stop-color="#FBE422"/>
<stop offset="1" stop-color="#C8D92B"/>
</linearGradient>
<linearGradient id="paint99_linear_856_569" x1="-5446.2" y1="244.953" x2="-5449.76" y2="246.735" gradientUnits="userSpaceOnUse">
<stop stop-color="#F8B54A"/>
<stop offset="1" stop-color="#F8A629"/>
</linearGradient>
<linearGradient id="paint100_linear_856_569" x1="-4209.73" y1="-273.399" x2="-4212.47" y2="-272.027" gradientUnits="userSpaceOnUse">
<stop stop-color="#BE1E68"/>
<stop offset="1" stop-color="#B5188D"/>
</linearGradient>
<linearGradient id="paint101_linear_856_569" x1="-6699.6" y1="-692.335" x2="-6705.61" y2="-689.331" gradientUnits="userSpaceOnUse">
<stop stop-color="#6DD0E7"/>
<stop offset="1" stop-color="#01A7DB"/>
</linearGradient>
<linearGradient id="paint102_linear_856_569" x1="-3737.19" y1="-798.384" x2="-3739.95" y2="-797.003" gradientUnits="userSpaceOnUse">
<stop stop-color="#F44274"/>
<stop offset="1" stop-color="#E51F9A"/>
</linearGradient>
<linearGradient id="paint103_linear_856_569" x1="-6440.59" y1="1333.13" x2="-6446.99" y2="1336.33" gradientUnits="userSpaceOnUse">
<stop stop-color="#B5188D"/>
<stop offset="1" stop-color="#4E69AE"/>
</linearGradient>
<linearGradient id="paint104_linear_856_569" x1="-3334.53" y1="-165.039" x2="-3336.66" y2="-163.976" gradientUnits="userSpaceOnUse">
<stop stop-color="#BE1E68"/>
<stop offset="1" stop-color="#B5188D"/>
</linearGradient>
<linearGradient id="paint105_linear_856_569" x1="-3933.48" y1="97.6445" x2="-3935.33" y2="98.5697" gradientUnits="userSpaceOnUse">
<stop stop-color="#F8B54A"/>
<stop offset="1" stop-color="#F8A629"/>
</linearGradient>
<linearGradient id="paint106_linear_856_569" x1="-7165.25" y1="131.239" x2="-7169.62" y2="133.426" gradientUnits="userSpaceOnUse">
<stop stop-color="#BE1E68"/>
<stop offset="1" stop-color="#B5188D"/>
</linearGradient>
<linearGradient id="paint107_linear_856_569" x1="-5112.44" y1="-629.099" x2="-5116.44" y2="-627.096" gradientUnits="userSpaceOnUse">
<stop stop-color="#6DD0E7"/>
<stop offset="1" stop-color="#01A7DB"/>
</linearGradient>
<linearGradient id="paint108_linear_856_569" x1="-7299.69" y1="876.097" x2="-7305.43" y2="878.966" gradientUnits="userSpaceOnUse">
<stop stop-color="#F71873"/>
<stop offset="1" stop-color="#F8A629"/>
</linearGradient>
<linearGradient id="paint109_linear_856_569" x1="-9016.08" y1="1069.99" x2="-9024.09" y2="1073.99" gradientUnits="userSpaceOnUse">
<stop stop-color="#FBE422"/>
<stop offset="1" stop-color="#C8D92B"/>
</linearGradient>
<linearGradient id="paint110_linear_856_569" x1="-6174.3" y1="98.2056" x2="-6177.72" y2="99.9161" gradientUnits="userSpaceOnUse">
<stop stop-color="#BE1E68"/>
<stop offset="1" stop-color="#B5188D"/>
</linearGradient>
<linearGradient id="paint111_linear_856_569" x1="-8053.32" y1="1039.39" x2="-8060.32" y2="1042.89" gradientUnits="userSpaceOnUse">
<stop stop-color="#6DD0E7"/>
<stop offset="1" stop-color="#01A7DB"/>
</linearGradient>
<linearGradient id="paint112_linear_856_569" x1="-8756.37" y1="-15.7615" x2="-8762.22" y2="-12.8329" gradientUnits="userSpaceOnUse">
<stop stop-color="#FBE422"/>
<stop offset="1" stop-color="#C8D92B"/>
</linearGradient>
<linearGradient id="paint113_linear_856_569" x1="-5273.11" y1="822.697" x2="-5277.16" y2="824.724" gradientUnits="userSpaceOnUse">
<stop stop-color="#BE1E68"/>
<stop offset="1" stop-color="#B5188D"/>
</linearGradient>
<linearGradient id="paint114_linear_856_569" x1="-8650.47" y1="-691.593" x2="-8658.68" y2="-687.489" gradientUnits="userSpaceOnUse">
<stop stop-color="#B4DF86"/>
<stop offset="1" stop-color="#84C743"/>
</linearGradient>
<linearGradient id="paint115_linear_856_569" x1="-6441.28" y1="247.937" x2="-6445.85" y2="250.222" gradientUnits="userSpaceOnUse">
<stop stop-color="#B5188D"/>
<stop offset="1" stop-color="#4E69AE"/>
</linearGradient>
<linearGradient id="paint116_linear_856_569" x1="-9412.96" y1="1177.02" x2="-9421.99" y2="1181.54" gradientUnits="userSpaceOnUse">
<stop stop-color="#6DD0E7"/>
<stop offset="1" stop-color="#01A7DB"/>
</linearGradient>
<linearGradient id="paint117_linear_856_569" x1="-5653.47" y1="893.923" x2="-5657.98" y2="896.177" gradientUnits="userSpaceOnUse">
<stop stop-color="#F71873"/>
<stop offset="1" stop-color="#F8A629"/>
</linearGradient>
<linearGradient id="paint118_linear_856_569" x1="-7097.48" y1="740.575" x2="-7102.54" y2="743.107" gradientUnits="userSpaceOnUse">
<stop stop-color="#FBE422"/>
<stop offset="1" stop-color="#C8D92B"/>
</linearGradient>
<linearGradient id="paint119_linear_856_569" x1="-7753.26" y1="231.181" x2="-7758.2" y2="233.652" gradientUnits="userSpaceOnUse">
<stop stop-color="#F71873"/>
<stop offset="1" stop-color="#C6211B"/>
</linearGradient>
<linearGradient id="paint120_linear_856_569" x1="-4032.52" y1="201.853" x2="-4034.95" y2="203.069" gradientUnits="userSpaceOnUse">
<stop stop-color="#F71873"/>
<stop offset="1" stop-color="#F8A629"/>
</linearGradient>
<linearGradient id="paint121_linear_856_569" x1="-3711.17" y1="-131.211" x2="-3713.53" y2="-130.032" gradientUnits="userSpaceOnUse">
<stop stop-color="#6DD0E7"/>
<stop offset="1" stop-color="#01A7DB"/>
</linearGradient>
<linearGradient id="paint122_linear_856_569" x1="-5564.95" y1="-1071.51" x2="-5569.28" y2="-1069.34" gradientUnits="userSpaceOnUse">
<stop stop-color="#F71873"/>
<stop offset="1" stop-color="#F8A629"/>
</linearGradient>
<linearGradient id="paint123_linear_856_569" x1="-5948.96" y1="368.148" x2="-5952.79" y2="370.061" gradientUnits="userSpaceOnUse">
<stop stop-color="#F8B54A"/>
<stop offset="1" stop-color="#F8A629"/>
</linearGradient>
<linearGradient id="paint124_linear_856_569" x1="-3636.94" y1="-978.292" x2="-3639.46" y2="-977.032" gradientUnits="userSpaceOnUse">
<stop stop-color="#F71873"/>
<stop offset="1" stop-color="#C6211B"/>
</linearGradient>
<linearGradient id="paint125_linear_856_569" x1="-6145.01" y1="535.757" x2="-6149.32" y2="537.913" gradientUnits="userSpaceOnUse">
<stop stop-color="#F8B54A"/>
<stop offset="1" stop-color="#F8A629"/>
</linearGradient>
<linearGradient id="paint126_linear_856_569" x1="-6257.08" y1="708.452" x2="-6261.87" y2="710.847" gradientUnits="userSpaceOnUse">
<stop stop-color="#F71873"/>
<stop offset="1" stop-color="#F8A629"/>
</linearGradient>
<linearGradient id="paint127_linear_856_569" x1="-4192.81" y1="-148.363" x2="-4195.64" y2="-146.948" gradientUnits="userSpaceOnUse">
<stop stop-color="#BE1E68"/>
<stop offset="1" stop-color="#B5188D"/>
</linearGradient>
<linearGradient id="paint128_linear_856_569" x1="-2859.11" y1="711.332" x2="-2861.3" y2="712.428" gradientUnits="userSpaceOnUse">
<stop stop-color="#F71873"/>
<stop offset="1" stop-color="#F8A629"/>
</linearGradient>
<linearGradient id="paint129_linear_856_569" x1="-2859.03" y1="711.867" x2="-2861.15" y2="712.928" gradientUnits="userSpaceOnUse">
<stop stop-color="#F71873"/>
<stop offset="1" stop-color="#F8A629"/>
</linearGradient>
<linearGradient id="paint130_linear_856_569" x1="-4268.6" y1="973.729" x2="-4272.14" y2="975.509" gradientUnits="userSpaceOnUse">
<stop stop-color="#F8B54A"/>
<stop offset="1" stop-color="#F8A629"/>
</linearGradient>
<linearGradient id="paint131_linear_856_569" x1="-4583.7" y1="960.759" x2="-4587.31" y2="962.567" gradientUnits="userSpaceOnUse">
<stop stop-color="#F8B54A"/>
<stop offset="1" stop-color="#F8A629"/>
</linearGradient>
<linearGradient id="paint132_linear_856_569" x1="-4063.19" y1="924.913" x2="-4066.56" y2="926.595" gradientUnits="userSpaceOnUse">
<stop stop-color="#6DD0E7"/>
<stop offset="1" stop-color="#01A7DB"/>
</linearGradient>
<linearGradient id="paint133_linear_856_569" x1="-4032.54" y1="-516.863" x2="-4035.38" y2="-515.441" gradientUnits="userSpaceOnUse">
<stop stop-color="#6DD0E7"/>
<stop offset="1" stop-color="#01A7DB"/>
</linearGradient>
<linearGradient id="paint134_linear_856_569" x1="-3986.54" y1="630.646" x2="-3989.28" y2="632.016" gradientUnits="userSpaceOnUse">
<stop stop-color="#F44274"/>
<stop offset="1" stop-color="#E51F9A"/>
</linearGradient>
<linearGradient id="paint135_linear_856_569" x1="-7066.59" y1="500.576" x2="-7071.98" y2="503.273" gradientUnits="userSpaceOnUse">
<stop stop-color="#6DD0E7"/>
<stop offset="1" stop-color="#01A7DB"/>
</linearGradient>
<linearGradient id="paint136_linear_856_569" x1="-7110.73" y1="-867.595" x2="-7117.32" y2="-864.298" gradientUnits="userSpaceOnUse">
<stop stop-color="#F8B54A"/>
<stop offset="1" stop-color="#F8A629"/>
</linearGradient>
<linearGradient id="paint137_linear_856_569" x1="-6859.97" y1="-916.102" x2="-6866.56" y2="-912.804" gradientUnits="userSpaceOnUse">
<stop stop-color="#F8B54A"/>
<stop offset="1" stop-color="#F8A629"/>
</linearGradient>
<linearGradient id="paint138_linear_856_569" x1="-6636.4" y1="351.509" x2="-6640.56" y2="353.591" gradientUnits="userSpaceOnUse">
<stop stop-color="#BE1E68"/>
<stop offset="1" stop-color="#B5188D"/>
</linearGradient>
<linearGradient id="paint139_linear_856_569" x1="-6385.64" y1="303.002" x2="-6389.8" y2="305.085" gradientUnits="userSpaceOnUse">
<stop stop-color="#BE1E68"/>
<stop offset="1" stop-color="#B5188D"/>
</linearGradient>
<linearGradient id="paint140_linear_856_569" x1="-6118.12" y1="1069.45" x2="-6123.3" y2="1072.04" gradientUnits="userSpaceOnUse">
<stop stop-color="#F71873"/>
<stop offset="1" stop-color="#F8A629"/>
</linearGradient>
<linearGradient id="paint141_linear_856_569" x1="-5867.36" y1="1020.94" x2="-5872.54" y2="1023.53" gradientUnits="userSpaceOnUse">
<stop stop-color="#F71873"/>
<stop offset="1" stop-color="#F8A629"/>
</linearGradient>
<linearGradient id="paint142_linear_856_569" x1="-6466.03" y1="-232.746" x2="-6469.21" y2="-231.158" gradientUnits="userSpaceOnUse">
<stop stop-color="#B4DF86"/>
<stop offset="1" stop-color="#84C743"/>
</linearGradient>
<linearGradient id="paint143_linear_856_569" x1="-6215.27" y1="-281.253" x2="-6218.45" y2="-279.664" gradientUnits="userSpaceOnUse">
<stop stop-color="#B4DF86"/>
<stop offset="1" stop-color="#84C743"/>
</linearGradient>
<linearGradient id="paint144_linear_856_569" x1="-6084.29" y1="369.145" x2="-6088.13" y2="371.066" gradientUnits="userSpaceOnUse">
<stop stop-color="#B4DF86"/>
<stop offset="1" stop-color="#84C743"/>
</linearGradient>
<linearGradient id="paint145_linear_856_569" x1="-5833.53" y1="320.639" x2="-5837.37" y2="322.559" gradientUnits="userSpaceOnUse">
<stop stop-color="#B4DF86"/>
<stop offset="1" stop-color="#84C743"/>
</linearGradient>
<linearGradient id="paint146_linear_856_569" x1="-3744.89" y1="837.116" x2="-3747.69" y2="838.512" gradientUnits="userSpaceOnUse">
<stop stop-color="#F71873"/>
<stop offset="1" stop-color="#C6211B"/>
</linearGradient>
<linearGradient id="paint147_linear_856_569" x1="-3494.13" y1="788.609" x2="-3496.92" y2="790.006" gradientUnits="userSpaceOnUse">
<stop stop-color="#F71873"/>
<stop offset="1" stop-color="#C6211B"/>
</linearGradient>
<linearGradient id="paint148_linear_856_569" x1="-5013.21" y1="1008.87" x2="-5017.2" y2="1010.87" gradientUnits="userSpaceOnUse">
<stop stop-color="#FBE422"/>
<stop offset="1" stop-color="#C8D92B"/>
</linearGradient>
<linearGradient id="paint149_linear_856_569" x1="-4762.44" y1="960.362" x2="-4766.43" y2="962.359" gradientUnits="userSpaceOnUse">
<stop stop-color="#FBE422"/>
<stop offset="1" stop-color="#C8D92B"/>
</linearGradient>
<linearGradient id="paint150_linear_856_569" x1="-5410.29" y1="1070.24" x2="-5415.15" y2="1072.67" gradientUnits="userSpaceOnUse">
<stop stop-color="#F44274"/>
<stop offset="1" stop-color="#E51F9A"/>
</linearGradient>
<linearGradient id="paint151_linear_856_569" x1="-5159.52" y1="1021.73" x2="-5164.39" y2="1024.16" gradientUnits="userSpaceOnUse">
<stop stop-color="#F44274"/>
<stop offset="1" stop-color="#E51F9A"/>
</linearGradient>
<linearGradient id="paint152_linear_856_569" x1="-6006.89" y1="188.859" x2="-6010.52" y2="190.676" gradientUnits="userSpaceOnUse">
<stop stop-color="#B5188D"/>
<stop offset="1" stop-color="#4E69AE"/>
</linearGradient>
<linearGradient id="paint153_linear_856_569" x1="-5756.12" y1="140.352" x2="-5759.76" y2="142.169" gradientUnits="userSpaceOnUse">
<stop stop-color="#B5188D"/>
<stop offset="1" stop-color="#4E69AE"/>
</linearGradient>
<linearGradient id="paint154_linear_856_569" x1="-5520.96" y1="-278.857" x2="-5524.96" y2="-276.855" gradientUnits="userSpaceOnUse">
<stop stop-color="#F44274"/>
<stop offset="1" stop-color="#E51F9A"/>
</linearGradient>
<linearGradient id="paint155_linear_856_569" x1="-5270.2" y1="-327.363" x2="-5274.2" y2="-325.361" gradientUnits="userSpaceOnUse">
<stop stop-color="#F44274"/>
<stop offset="1" stop-color="#E51F9A"/>
</linearGradient>
<linearGradient id="paint156_linear_856_569" x1="-4825.82" y1="-1049.02" x2="-4829.56" y2="-1047.15" gradientUnits="userSpaceOnUse">
<stop stop-color="#6DD0E7"/>
<stop offset="1" stop-color="#01A7DB"/>
</linearGradient>
<linearGradient id="paint157_linear_856_569" x1="-4575.06" y1="-1097.53" x2="-4578.8" y2="-1095.65" gradientUnits="userSpaceOnUse">
<stop stop-color="#6DD0E7"/>
<stop offset="1" stop-color="#01A7DB"/>
</linearGradient>
<linearGradient id="paint158_linear_856_569" x1="-4703.98" y1="140578" x2="-2773.75" y2="141610" gradientUnits="userSpaceOnUse">
<stop stop-color="#F71873"/>
<stop offset="1" stop-color="#C6211B"/>
</linearGradient>
<linearGradient id="paint159_linear_856_569" x1="1981.97" y1="20042.6" x2="1897.78" y2="20273.7" gradientUnits="userSpaceOnUse">
<stop stop-color="#F44274"/>
<stop offset="1" stop-color="#E51F9A"/>
</linearGradient>
<linearGradient id="paint160_linear_856_569" x1="-10828" y1="48067.4" x2="-10518.3" y2="48630.2" gradientUnits="userSpaceOnUse">
<stop stop-color="#F44274"/>
<stop offset="1" stop-color="#E51F9A"/>
</linearGradient>
<linearGradient id="paint161_linear_856_569" x1="31208.3" y1="-56974.7" x2="31587.1" y2="-56403" gradientUnits="userSpaceOnUse">
<stop stop-color="#F44274"/>
<stop offset="1" stop-color="#E51F9A"/>
</linearGradient>
<linearGradient id="paint162_linear_856_569" x1="31555.3" y1="-56955.7" x2="31934.1" y2="-56384" gradientUnits="userSpaceOnUse">
<stop stop-color="#F44274"/>
<stop offset="1" stop-color="#E51F9A"/>
</linearGradient>
<linearGradient id="paint163_linear_856_569" x1="14519.4" y1="-26017.6" x2="15557.5" y2="-26473.1" gradientUnits="userSpaceOnUse">
<stop stop-color="#B5188D"/>
<stop offset="1" stop-color="#4E69AE"/>
</linearGradient>
<linearGradient id="paint164_linear_856_569" x1="14866.4" y1="-25998.6" x2="15904.5" y2="-26454.1" gradientUnits="userSpaceOnUse">
<stop stop-color="#B5188D"/>
<stop offset="1" stop-color="#4E69AE"/>
</linearGradient>
<linearGradient id="paint165_linear_856_569" x1="5608.39" y1="62829.1" x2="6169.87" y2="63022.7" gradientUnits="userSpaceOnUse">
<stop stop-color="#F71873"/>
<stop offset="1" stop-color="#C6211B"/>
</linearGradient>
<linearGradient id="paint166_linear_856_569" x1="17446.7" y1="27566.9" x2="18089.2" y2="27404.1" gradientUnits="userSpaceOnUse">
<stop stop-color="#F8B54A"/>
<stop offset="1" stop-color="#F8A629"/>
</linearGradient>
<linearGradient id="paint167_linear_856_569" x1="17793.7" y1="27585.9" x2="18436.2" y2="27423.1" gradientUnits="userSpaceOnUse">
<stop stop-color="#F8B54A"/>
<stop offset="1" stop-color="#F8A629"/>
</linearGradient>
<linearGradient id="paint168_linear_856_569" x1="1759.85" y1="21378.3" x2="1885.37" y2="21377" gradientUnits="userSpaceOnUse">
<stop stop-color="#F8B54A"/>
<stop offset="1" stop-color="#F8A629"/>
</linearGradient>
<linearGradient id="paint169_linear_856_569" x1="2106.85" y1="21397.3" x2="2232.37" y2="21396" gradientUnits="userSpaceOnUse">
<stop stop-color="#F8B54A"/>
<stop offset="1" stop-color="#F8A629"/>
</linearGradient>
<linearGradient id="paint170_linear_856_569" x1="-3884.39" y1="-20048.2" x2="-4010.44" y2="-20306.7" gradientUnits="userSpaceOnUse">
<stop stop-color="#B5188D"/>
<stop offset="1" stop-color="#4E69AE"/>
</linearGradient>
<linearGradient id="paint171_linear_856_569" x1="-23280" y1="-54492.3" x2="-23528.2" y2="-55001.3" gradientUnits="userSpaceOnUse">
<stop stop-color="#F71873"/>
<stop offset="1" stop-color="#C6211B"/>
</linearGradient>
<linearGradient id="paint172_linear_856_569" x1="-8490.05" y1="-24113.2" x2="-8622.2" y2="-23980" gradientUnits="userSpaceOnUse">
<stop stop-color="#B5188D"/>
<stop offset="1" stop-color="#4E69AE"/>
</linearGradient>
<linearGradient id="paint173_linear_856_569" x1="-15427.3" y1="-38653.5" x2="-15685.2" y2="-38846" gradientUnits="userSpaceOnUse">
<stop stop-color="#F71873"/>
<stop offset="1" stop-color="#C6211B"/>
</linearGradient>
<linearGradient id="paint174_linear_856_569" x1="27586.2" y1="9416.29" x2="28278.4" y2="9416.29" gradientUnits="userSpaceOnUse">
<stop stop-color="#6DD0E7"/>
<stop offset="1" stop-color="#01A7DB"/>
</linearGradient>
<linearGradient id="paint175_linear_856_569" x1="-10480.3" y1="20079" x2="-10645.6" y2="20151.4" gradientUnits="userSpaceOnUse">
<stop stop-color="#6DD0E7"/>
<stop offset="1" stop-color="#01A7DB"/>
</linearGradient>
<linearGradient id="paint176_linear_856_569" x1="-10133.3" y1="20098" x2="-10298.6" y2="20170.4" gradientUnits="userSpaceOnUse">
<stop stop-color="#6DD0E7"/>
<stop offset="1" stop-color="#01A7DB"/>
</linearGradient>
<linearGradient id="paint177_linear_856_569" x1="-38168.5" y1="26386.4" x2="-38449.4" y2="26509.6" gradientUnits="userSpaceOnUse">
<stop stop-color="#B4DF86"/>
<stop offset="1" stop-color="#84C743"/>
</linearGradient>
<linearGradient id="paint178_linear_856_569" x1="-37821.5" y1="26405.4" x2="-38102.4" y2="26528.6" gradientUnits="userSpaceOnUse">
<stop stop-color="#B4DF86"/>
<stop offset="1" stop-color="#84C743"/>
</linearGradient>
<linearGradient id="paint179_linear_856_569" x1="-3231.34" y1="12423.7" x2="-3173.07" y2="12325.9" gradientUnits="userSpaceOnUse">
<stop stop-color="#6DD0E7"/>
<stop offset="1" stop-color="#01A7DB"/>
</linearGradient>
<linearGradient id="paint180_linear_856_569" x1="-2884.34" y1="12442.7" x2="-2826.07" y2="12344.9" gradientUnits="userSpaceOnUse">
<stop stop-color="#6DD0E7"/>
<stop offset="1" stop-color="#01A7DB"/>
</linearGradient>
<linearGradient id="paint181_linear_856_569" x1="-30431.9" y1="18735.8" x2="-30606.4" y2="18701.3" gradientUnits="userSpaceOnUse">
<stop stop-color="#B4DF86"/>
<stop offset="1" stop-color="#84C743"/>
</linearGradient>
<linearGradient id="paint182_linear_856_569" x1="-30084.9" y1="18754.8" x2="-30259.4" y2="18720.3" gradientUnits="userSpaceOnUse">
<stop stop-color="#B4DF86"/>
<stop offset="1" stop-color="#84C743"/>
</linearGradient>
</defs>
</svg>
