<svg width="32" height="32" viewBox="0 0 32 32" fill="none" xmlns="http://www.w3.org/2000/svg">
<rect x="1" y="1" width="30" height="30" rx="5" fill="#2B2638"/>
<g clip-path="url(#clip0_841_954)">
<path d="M19.5 20.1667C19.5 20.6269 19.1269 21 18.6667 21H10.3333C9.8731 21 9.5 20.6269 9.5 20.1667V20.1667C9.5 19.7064 9.8731 19.3333 10.3333 19.3333H18.6667C19.1269 19.3333 19.5 19.7064 19.5 20.1667V20.1667ZM24.5 16C24.5 16.4602 24.1269 16.8333 23.6667 16.8333H10.3333C9.8731 16.8333 9.5 16.4602 9.5 16V16C9.5 15.5398 9.8731 15.1667 10.3333 15.1667H23.6667C24.1269 15.1667 24.5 15.5398 24.5 16V16ZM19.5 11.8333C19.5 12.2936 19.1269 12.6667 18.6667 12.6667H10.3333C9.8731 12.6667 9.5 12.2936 9.5 11.8333V11.8333C9.5 11.3731 9.8731 11 10.3333 11H18.6667C19.1269 11 19.5 11.3731 19.5 11.8333V11.8333Z" fill="white" fill-opacity="0.7"/>
</g>
<rect x="1" y="1" width="30" height="30" rx="5" stroke="#6E00FF"/>
<defs>
<clipPath id="clip0_841_954">
<rect width="24" height="25.1429" fill="white" transform="translate(2 1)"/>
</clipPath>
</defs>
</svg>
